# Blender v2.76 (sub 0) OBJ File: 'tree_1_winter.blend'
# www.blender.org
mtllib tree_broke.mtl
o Cylinder
v -0.011214 -0.540405 -0.365489
v 0.020040 0.441664 -0.411806
v 0.424432 -0.540405 -0.113969
v 0.376674 0.778828 -0.205903
v 0.424432 -0.540405 0.389071
v 0.376674 0.805090 0.205903
v -0.011214 -0.540405 0.640592
v 0.020040 1.000000 0.411806
v -0.446859 -0.540405 0.389071
v -0.336594 1.000000 0.205903
v -0.446859 -0.540405 -0.113969
v -0.336594 0.643533 -0.205903
vt 0.738350 0.999908
vt 0.444560 0.979333
vt 0.352078 0.849567
vt 0.748275 0.849624
vt 0.352823 0.726023
vt 0.758760 0.699378
vt 0.291406 0.604223
vt 0.754458 0.548828
vt 0.269920 0.482814
vt 0.728212 0.400522
vt 0.684406 0.256422
vt 0.335783 0.333635
vt 0.300248 0.013063
vt 0.628871 0.022160
vt 0.732843 0.000092
vt 0.880836 0.028057
vt 0.930613 0.170205
vt 0.832398 0.284387
vt 0.025999 0.153048
vt 0.146567 0.038065
vt 0.121592 0.399871
vt 0.017363 0.413234
vn 0.514600 -0.047700 -0.856100
vn 0.999400 0.035700 -0.001000
vn 0.518800 0.123700 0.845900
vn -0.495300 0.137500 0.857800
vn -0.504100 -0.022200 -0.863400
vn -0.996500 0.077600 -0.030200
vn 0.000000 -1.000000 -0.000000
vn 0.258800 0.947100 -0.189700
vn -0.132100 0.696200 -0.705600
usemtl Material
s off
f 1/1/1 2/2/1 4/3/1 3/4/1
f 3/4/2 4/3/2 6/5/2 5/6/2
f 5/6/3 6/5/3 8/7/3 7/8/3
f 7/8/4 8/7/4 10/9/4 9/10/4
f 11/11/5 12/12/5 2/13/5 1/14/5
f 9/10/6 10/9/6 12/12/6 11/11/6
f 1/14/7 3/15/7 5/16/7 7/17/7 9/18/7 11/11/7
f 6/19/8 4/20/8 10/21/8 8/22/8
f 4/20/9 2/13/9 12/12/9 10/21/9
