# Blender v2.79 (sub 0) OBJ File: 'EnemyCampFire.blend'
# www.blender.org
mtllib EnemyCampFire.mtl
o Plane
v -11.774787 -71.628380 47.806885
v -13.768401 -71.674828 46.120319
v -12.018264 -71.858223 46.213135
v -14.010595 -71.550629 46.632450
v -13.791126 -71.640816 46.928394
v -13.796341 -71.669250 47.516582
v -13.576570 -71.715897 47.650158
v -11.612563 -71.563782 47.664330
v -11.375955 -71.640816 47.304577
v -11.375955 -71.640816 46.726658
v -11.437308 -71.517090 46.401073
v -13.428940 -71.528938 48.201729
v -13.006022 -71.640816 48.231133
v -12.567430 -71.661179 48.335503
v -12.096889 -71.685944 48.085835
v -12.029181 -71.640816 45.654202
v -12.531787 -71.640816 45.570827
v -13.109703 -71.640816 45.570827
v -13.364701 -71.622650 45.662636
v -11.953871 -71.640816 47.882492
v -12.522564 -71.895561 47.865311
v -13.086332 -71.386627 47.886269
v -13.687618 -71.640816 47.882492
v -11.943490 -71.469742 47.296329
v -12.532592 -71.566994 47.302444
v -13.109703 -71.640816 47.304577
v -13.622922 -71.739578 47.378620
v -11.965097 -71.822319 46.741951
v -12.543313 -71.494484 46.730331
v -13.109703 -71.887650 46.713478
v -13.677117 -71.503021 46.736210
v -11.959975 -71.838493 46.154846
v -12.531787 -71.640816 46.148743
v -13.109703 -71.516663 46.148743
v -13.624422 -71.677811 46.151909
vn 0.2703 -0.9612 -0.0549
vn 0.0947 0.9217 0.3762
vn 0.1322 0.9824 0.1321
vn -0.0104 0.9548 -0.2971
vn -0.4311 0.8926 0.1318
vn -0.1188 0.9903 -0.0727
vn 0.2032 0.9636 0.1739
vn -0.2275 0.9560 0.1851
vn 0.4142 0.9023 -0.1196
vn 0.0118 0.9776 0.2101
vn 0.2541 0.9670 -0.0192
vn -0.3732 0.9180 -0.1341
vn 0.1891 0.9517 -0.2420
vn 0.0745 0.9923 -0.0994
vn -0.3050 0.9022 -0.3050
vn 0.3568 0.9328 0.0502
vn -0.2720 0.8825 0.3837
vn -0.1410 0.9508 0.2758
vn 0.4669 0.8843 0.0012
vn -0.2738 0.9033 -0.3302
vn 0.0322 0.9981 -0.0527
vn -0.1947 0.9746 -0.1104
vn 0.1062 0.9887 -0.1062
vn 0.1649 0.9720 0.1676
usemtl None
s off
f 32//1 11//1 3//1 16//1
f 15//2 1//2 8//2 20//2
f 20//3 8//3 9//3 24//3
f 24//4 9//4 10//4 28//4
f 28//5 10//5 11//5 32//5
f 5//6 31//6 35//6 4//6
f 31//7 30//7 34//7 35//7
f 30//8 29//8 33//8 34//8
f 29//9 28//9 32//9 33//9
f 6//10 27//10 31//10 5//10
f 27//11 26//11 30//11 31//11
f 26//12 25//12 29//12 30//12
f 25//13 24//13 28//13 29//13
f 7//14 23//14 27//14 6//14
f 23//15 22//15 26//15 27//15
f 22//16 21//16 25//16 26//16
f 21//17 20//17 24//17 25//17
f 12//18 13//18 22//18 23//18
f 13//19 14//19 21//19 22//19
f 14//20 15//20 20//20 21//20
f 4//21 35//21 19//21 2//21
f 35//22 34//22 18//22 19//22
f 34//23 33//23 17//23 18//23
f 33//24 32//24 16//24 17//24
o Cube.005_Cube.007
v -13.074645 -76.197693 47.069035
v -13.074645 -71.928802 47.069035
v -13.074645 -76.197693 46.618404
v -13.074645 -71.928802 46.618404
v -12.511918 -76.197693 47.069035
v -12.511918 -71.928802 47.069035
v -12.511918 -76.197693 46.618404
v -12.511918 -71.928802 46.618404
v -13.074645 -71.928802 47.069035
v -13.074645 -71.928802 46.618404
v -12.511918 -71.928802 46.618404
v -12.511918 -71.928802 47.069035
v -13.720040 -70.948189 45.233421
v -13.308975 -72.017769 45.945408
v -14.424879 -70.948189 45.938259
v -13.712893 -72.017769 46.349327
v -14.682867 -70.948189 46.901089
v -13.860737 -72.017769 46.901089
v -14.424878 -70.948189 47.863914
v -13.712893 -72.017769 47.452850
v -13.720039 -70.948189 48.568752
v -13.308974 -72.017769 47.856766
v -12.757212 -70.948189 48.826740
v -12.757212 -72.017769 48.004612
v -11.794385 -70.948189 48.568752
v -12.205450 -72.017769 47.856766
v -11.089546 -70.948189 47.863914
v -11.801532 -72.017769 47.452850
v -10.831557 -70.948189 46.901089
v -11.653687 -72.017769 46.901089
v -11.089546 -70.948189 45.938259
v -11.801532 -72.017769 46.349323
v -11.794385 -70.948189 45.233421
v -12.205450 -72.017769 45.945408
v -12.757213 -70.948189 44.975433
v -12.757213 -72.017769 45.797562
v -14.315935 -71.126511 47.801018
v -14.237460 -71.304764 47.755711
v -14.178191 -71.483017 47.721489
v -14.039499 -71.661270 47.641415
v -13.926277 -71.839516 47.576046
v -12.757212 -71.126511 48.700943
v -12.757212 -71.304764 48.610329
v -12.757212 -71.483017 48.541893
v -12.757212 -71.661270 48.381744
v -12.757212 -71.839516 48.251007
v -11.198490 -71.126511 47.801014
v -11.276964 -71.304764 47.755707
v -11.336233 -71.483017 47.721489
v -11.474925 -71.661270 47.641415
v -11.588147 -71.839516 47.576046
v -11.198489 -71.126511 46.001160
v -11.276964 -71.304764 46.046467
v -11.336232 -71.483017 46.080685
v -11.474924 -71.661270 46.160759
v -11.588147 -71.839516 46.226128
v -11.857284 -71.126511 45.342365
v -11.902591 -71.304764 45.420837
v -11.936810 -71.483017 45.480106
v -12.016883 -71.661270 45.618801
v -12.082253 -71.839516 45.732021
v -12.757213 -71.839516 45.551167
v -12.757213 -71.661270 45.420429
v -12.757213 -71.483017 45.260281
v -12.757213 -71.304764 45.191845
v -12.757213 -71.126511 45.101231
v -10.957355 -71.126511 46.901089
v -11.047969 -71.304764 46.901089
v -11.116406 -71.483017 46.901089
v -11.276554 -71.661270 46.901089
v -11.407292 -71.839516 46.901089
v -11.857284 -71.126511 48.459808
v -11.902591 -71.304764 48.381336
v -11.936810 -71.483017 48.322067
v -12.016883 -71.661270 48.183372
v -12.082253 -71.839516 48.070152
v -13.657141 -71.126511 48.459808
v -13.611834 -71.304764 48.381336
v -13.577615 -71.483017 48.322067
v -13.497541 -71.661270 48.183372
v -13.432172 -71.839516 48.070152
v -14.557071 -71.126511 46.901089
v -14.466456 -71.304764 46.901089
v -14.398018 -71.483017 46.901089
v -14.237870 -71.661270 46.901089
v -14.107132 -71.839516 46.901089
v -13.657143 -71.126511 45.342365
v -13.611835 -71.304764 45.420841
v -13.577616 -71.483017 45.480110
v -13.497542 -71.661270 45.618801
v -13.432173 -71.839516 45.732021
v -14.315935 -71.126511 46.001160
v -14.237461 -71.304764 46.046467
v -14.178192 -71.483017 46.080685
v -14.039500 -71.661270 46.160759
v -13.926277 -71.839516 46.226128
v -14.568671 -70.948189 46.901089
v -14.325981 -70.948189 47.806816
v -13.662941 -70.948189 48.469856
v -12.757212 -70.948189 48.712543
v -11.851482 -70.948189 48.469856
v -11.188443 -70.948189 47.806816
v -10.945753 -70.948189 46.901089
v -11.188442 -70.948189 45.995358
v -11.851482 -70.948189 45.332317
v -12.757213 -70.948189 45.089630
v -14.325982 -70.948189 45.995358
v -13.662943 -70.948189 45.332317
v -13.800768 -71.876183 46.901089
v -13.660957 -71.876183 47.422863
v -13.278990 -71.876183 47.804832
v -12.757212 -71.876183 47.944641
v -12.235435 -71.876183 47.804832
v -11.853467 -71.876183 47.422863
v -11.713656 -71.876183 46.901089
v -11.853466 -71.876183 46.379311
v -12.235435 -71.876183 45.997341
v -12.757213 -71.876183 45.857533
v -13.660958 -71.876183 46.379311
v -13.278991 -71.876183 45.997341
vn -1.0000 0.0000 0.0000
vn 0.0000 0.0000 -1.0000
vn 1.0000 0.0000 0.0000
vn 0.0000 0.0000 1.0000
vn 0.0000 -1.0000 0.0000
vn 0.0000 1.0000 0.0000
vn -0.7982 -0.5631 0.2139
vn -0.7982 -0.5631 -0.2139
vn -0.5843 -0.5631 0.5843
vn -0.2139 -0.5631 0.7982
vn 0.2139 -0.5631 0.7982
vn 0.5843 -0.5631 0.5843
vn 0.7982 -0.5631 0.2139
vn 0.7982 -0.5631 -0.2139
vn 0.5843 -0.5631 -0.5843
vn 0.2139 -0.5631 -0.7982
vn -0.5843 -0.5631 -0.5843
vn -0.2139 -0.5631 -0.7982
vn -0.1552 -0.8004 -0.5791
vn -0.2112 -0.5781 -0.7882
vn -0.1955 -0.6554 -0.7295
vn -0.2427 -0.3477 -0.9057
vn -0.2323 -0.4408 -0.8670
vn -0.4239 -0.8004 -0.4239
vn -0.5770 -0.5781 -0.5770
vn -0.5341 -0.6554 -0.5340
vn -0.6630 -0.3477 -0.6630
vn -0.6347 -0.4408 -0.6347
vn 0.1552 -0.8004 -0.5790
vn 0.2112 -0.5781 -0.7882
vn 0.1955 -0.6554 -0.7295
vn 0.2427 -0.3477 -0.9057
vn 0.2323 -0.4408 -0.8670
vn 0.4239 -0.8004 -0.4239
vn 0.5770 -0.5781 -0.5770
vn 0.5340 -0.6554 -0.5340
vn 0.6630 -0.3477 -0.6630
vn 0.6347 -0.4408 -0.6347
vn 0.5790 -0.8004 -0.1552
vn 0.7882 -0.5781 -0.2112
vn 0.7295 -0.6554 -0.1955
vn 0.9057 -0.3477 -0.2427
vn 0.8670 -0.4408 -0.2323
vn 0.5790 -0.8004 0.1552
vn 0.7882 -0.5781 0.2112
vn 0.7295 -0.6554 0.1955
vn 0.9057 -0.3477 0.2427
vn 0.8670 -0.4408 0.2323
vn 0.4239 -0.8004 0.4239
vn 0.5770 -0.5781 0.5770
vn 0.5340 -0.6554 0.5340
vn 0.6630 -0.3477 0.6630
vn 0.6347 -0.4408 0.6347
vn 0.1552 -0.8004 0.5791
vn 0.2112 -0.5781 0.7882
vn 0.1955 -0.6554 0.7295
vn 0.2427 -0.3477 0.9057
vn 0.2323 -0.4407 0.8670
vn -0.1552 -0.8004 0.5790
vn -0.2112 -0.5781 0.7882
vn -0.1955 -0.6554 0.7295
vn -0.2427 -0.3477 0.9057
vn -0.2323 -0.4408 0.8670
vn -0.4239 -0.8004 0.4239
vn -0.5770 -0.5781 0.5770
vn -0.5340 -0.6554 0.5340
vn -0.6630 -0.3477 0.6630
vn -0.6347 -0.4408 0.6347
vn -0.5790 -0.8004 -0.1552
vn -0.7882 -0.5781 -0.2112
vn -0.7295 -0.6554 -0.1955
vn -0.9057 -0.3477 -0.2427
vn -0.8670 -0.4408 -0.2323
vn -0.5790 -0.8004 0.1552
vn -0.7882 -0.5781 0.2112
vn -0.7295 -0.6554 0.1955
vn -0.9057 -0.3477 0.2427
vn -0.8670 -0.4408 0.2323
vn -0.2022 0.6244 0.7545
vn 0.0000 1.0000 -0.0001
vn 0.0000 1.0000 0.0001
vn 0.2022 0.6244 0.7545
vn -0.7545 0.6244 -0.2022
vn 0.5524 0.6244 -0.5523
vn 0.2022 0.6244 -0.7545
vn -0.5523 0.6244 0.5523
vn 0.5523 0.6244 0.5523
vn -0.7545 0.6244 0.2022
vn 0.7545 0.6244 0.2022
vn -0.5524 0.6244 -0.5523
vn -0.2022 0.6244 -0.7545
vn 0.7545 0.6244 -0.2022
usemtl None
s off
f 36//25 37//25 39//25 38//25
f 38//26 39//26 43//26 42//26
f 42//27 43//27 41//27 40//27
f 40//28 41//28 37//28 36//28
f 38//29 42//29 40//29 36//29
f 43//28 39//28 45//28 46//28
f 46//30 45//30 44//30 47//30
f 39//28 37//28 44//28 45//28
f 37//28 41//28 47//28 44//28
f 41//28 43//28 46//28 47//28
f 55//29 53//29 51//29 49//29 71//29 69//29 67//29 65//29 63//29 61//29 59//29 57//29
f 72//31 54//31 52//31 117//31
f 117//32 52//32 50//32 127//32
f 112//33 56//33 54//33 72//33
f 77//34 58//34 56//34 112//34
f 107//35 60//35 58//35 77//35
f 82//36 62//36 60//36 107//36
f 102//37 64//37 62//37 82//37
f 87//38 66//38 64//38 102//38
f 92//39 68//39 66//39 87//39
f 101//40 70//40 68//40 92//40
f 62//30 64//30 138//30 137//30
f 127//41 50//41 48//41 122//41
f 122//42 48//42 70//42 101//42
f 49//43 126//43 97//43 71//43
f 126//44 125//44 98//44 97//44
f 125//45 124//45 99//45 98//45
f 124//46 123//46 100//46 99//46
f 123//47 122//47 101//47 100//47
f 51//48 131//48 126//48 49//48
f 131//49 130//49 125//49 126//49
f 130//50 129//50 124//50 125//50
f 129//51 128//51 123//51 124//51
f 128//52 127//52 122//52 123//52
f 71//53 97//53 96//53 69//53
f 97//54 98//54 95//54 96//54
f 98//55 99//55 94//55 95//55
f 99//56 100//56 93//56 94//56
f 100//57 101//57 92//57 93//57
f 69//58 96//58 91//58 67//58
f 96//59 95//59 90//59 91//59
f 95//60 94//60 89//60 90//60
f 94//61 93//61 88//61 89//61
f 93//62 92//62 87//62 88//62
f 67//63 91//63 106//63 65//63
f 91//64 90//64 105//64 106//64
f 90//65 89//65 104//65 105//65
f 89//66 88//66 103//66 104//66
f 88//67 87//67 102//67 103//67
f 65//68 106//68 86//68 63//68
f 106//69 105//69 85//69 86//69
f 105//70 104//70 84//70 85//70
f 104//71 103//71 83//71 84//71
f 103//72 102//72 82//72 83//72
f 63//73 86//73 111//73 61//73
f 86//74 85//74 110//74 111//74
f 85//75 84//75 109//75 110//75
f 84//76 83//76 108//76 109//76
f 83//77 82//77 107//77 108//77
f 61//78 111//78 81//78 59//78
f 111//79 110//79 80//79 81//79
f 110//80 109//80 79//80 80//80
f 109//81 108//81 78//81 79//81
f 108//82 107//82 77//82 78//82
f 59//83 81//83 116//83 57//83
f 81//84 80//84 115//84 116//84
f 80//85 79//85 114//85 115//85
f 79//86 78//86 113//86 114//86
f 78//87 77//87 112//87 113//87
f 57//88 116//88 76//88 55//88
f 116//89 115//89 75//89 76//89
f 115//90 114//90 74//90 75//90
f 114//91 113//91 73//91 74//91
f 113//92 112//92 72//92 73//92
f 53//93 121//93 131//93 51//93
f 121//94 120//94 130//94 131//94
f 120//95 119//95 129//95 130//95
f 119//96 118//96 128//96 129//96
f 118//97 117//97 127//97 128//97
f 55//98 76//98 121//98 53//98
f 76//99 75//99 120//99 121//99
f 75//100 74//100 119//100 120//100
f 74//101 73//101 118//101 119//101
f 73//102 72//102 117//102 118//102
f 140//103 141//103 153//103 152//103
f 70//104 48//104 143//104 141//104
f 50//30 52//30 132//30 142//30
f 64//30 66//30 139//30 138//30
f 54//30 56//30 134//30 133//30
f 68//104 70//104 141//104 140//104
f 48//30 50//30 142//30 143//30
f 66//30 68//30 140//30 139//30
f 52//30 54//30 133//30 132//30
f 60//30 62//30 137//30 136//30
f 58//105 60//105 136//105 135//105
f 56//105 58//105 135//105 134//105
f 155//30 154//30 144//30 145//30 146//30 147//30 148//30 149//30 150//30 151//30 152//30 153//30
f 141//106 143//106 155//106 153//106
f 137//107 138//107 150//107 149//107
f 133//108 134//108 146//108 145//108
f 134//109 135//109 147//109 146//109
f 139//110 140//110 152//110 151//110
f 143//111 142//111 154//111 155//111
f 138//112 139//112 151//112 150//112
f 142//113 132//113 144//113 154//113
f 136//114 137//114 149//114 148//114
f 135//115 136//115 148//115 147//115
f 132//116 133//116 145//116 144//116
o NurbsPath
v -69.232826 -26.369183 32.053528
v -65.891014 -26.329235 26.352581
v -61.465561 -26.298767 20.959909
v -56.202938 -26.276627 15.908648
v -50.349644 -26.261639 11.231924
v -44.152161 -26.252651 6.962866
v -37.856987 -26.248497 3.134602
v -31.710602 -26.248013 -0.219737
v -25.959503 -26.250034 -3.067024
v -20.850178 -26.253407 -5.374130
v -16.629116 -26.256962 -7.107925
v -13.542805 -26.259533 -8.235281
v -11.837738 -26.259968 -8.723064
v -5.512407 -26.255180 -9.189930
v 0.583801 -26.254501 -8.506250
v 6.388723 -26.257221 -6.787851
v 11.840197 -26.262646 -4.150551
v 16.876055 -26.270061 -0.710177
v 21.434134 -26.278774 3.417448
v 25.452269 -26.288074 8.116501
v 28.868292 -26.297256 13.271156
v 31.620047 -26.305626 18.765593
v 33.645363 -26.312473 24.483988
v 34.882072 -26.317097 30.310514
v 35.268028 -26.318798 36.129353
v 34.716187 -26.292347 41.993500
v 33.251244 -26.219215 47.306671
v 30.966719 -26.108742 52.118263
v 27.956133 -25.970257 56.477680
v 24.312998 -25.813103 60.434315
v 20.130842 -25.646614 64.037575
v 15.503180 -25.480122 67.336853
v 10.523531 -25.322971 70.381561
v 5.285414 -25.184486 73.221085
v -0.117653 -25.074013 75.904846
v -5.592148 -25.000881 78.482216
v -11.044550 -24.974422 81.002617
v -20.554272 -25.005833 84.320930
v -29.655071 -25.092159 85.473038
v -38.215401 -25.221554 84.705299
v -46.103722 -25.382172 82.264084
v -53.188492 -25.562153 78.395767
v -59.338161 -25.749664 73.346710
v -64.421196 -25.932846 67.363281
v -68.306053 -26.099857 60.691856
v -70.861183 -26.238846 53.578796
v -71.955055 -26.337963 46.270470
v -71.456116 -26.385361 39.013252
l 156 157
l 157 158
l 158 159
l 159 160
l 160 161
l 161 162
l 162 163
l 163 164
l 164 165
l 165 166
l 166 167
l 167 168
l 168 169
l 169 170
l 170 171
l 171 172
l 172 173
l 173 174
l 174 175
l 175 176
l 176 177
l 177 178
l 178 179
l 179 180
l 180 181
l 181 182
l 182 183
l 183 184
l 184 185
l 185 186
l 186 187
l 187 188
l 188 189
l 189 190
l 190 191
l 191 192
l 192 193
l 193 194
l 194 195
l 195 196
l 196 197
l 197 198
l 198 199
l 199 200
l 200 201
l 201 202
l 202 203
l 203 156
