# This file uses centimeters as units for non-parametric coordinates.

mtllib Barrel_low_poly.mtl
g default
v 0.866025 -1.000000 -0.500000
v 0.500000 -1.000000 -0.866025
v 0.000000 -1.000000 -1.000000
v -0.500000 -1.000000 -0.866025
v -0.866025 -1.000000 -0.500000
v -1.000000 -1.000000 0.000000
v -0.866025 -1.000000 0.500000
v -0.500000 -1.000000 0.866025
v 0.000000 -1.000000 1.000000
v 0.500000 -1.000000 0.866025
v 0.866025 -1.000000 0.500000
v 1.000000 -1.000000 0.000000
v 0.866025 1.000000 -0.500000
v 0.500000 1.000000 -0.866025
v 0.000000 1.000000 -1.000000
v -0.500000 1.000000 -0.866025
v -0.866025 1.000000 -0.500000
v -1.000000 1.000000 0.000000
v -0.866025 1.000000 0.500000
v -0.500000 1.000000 0.866025
v 0.000000 1.000000 1.000000
v 0.500000 1.000000 0.866025
v 0.866025 1.000000 0.500000
v 1.000000 1.000000 0.000000
v 0.000000 -1.000000 0.000000
v 0.000000 0.638399 0.000000
v 0.832496 0.792711 0.480642
v 0.480642 0.792711 0.832496
v 0.000000 0.792711 0.961283
v -0.480642 0.792711 0.832496
v -0.832496 0.792711 0.480642
v -0.961283 0.792711 0.000000
v -0.832496 0.792711 -0.480642
v -0.480642 0.792711 -0.832496
v 0.000000 0.792711 -0.961283
v 0.480642 0.792711 -0.832496
v 0.832496 0.792711 -0.480642
v 0.961283 0.792711 0.000000
v 0.995617 0.321099 0.574820
v 0.574820 0.321099 0.995617
v 0.000000 0.321099 1.149640
v -0.574820 0.321099 0.995617
v -0.995617 0.321099 0.574820
v -1.149640 0.321099 0.000000
v -0.995617 0.321099 -0.574820
v -0.574820 0.321099 -0.995617
v 0.000000 0.321099 -1.149640
v 0.574820 0.321099 -0.995617
v 0.995617 0.321099 -0.574820
v 1.149640 0.321099 0.000000
v 0.995617 -0.321099 0.574820
v 0.574820 -0.321099 0.995617
v 0.000000 -0.321099 1.149640
v -0.574820 -0.321099 0.995617
v -0.995617 -0.321099 0.574820
v -1.149640 -0.321099 0.000000
v -0.995617 -0.321099 -0.574820
v -0.574820 -0.321099 -0.995617
v 0.000000 -0.321099 -1.149640
v 0.574820 -0.321099 -0.995617
v 0.995617 -0.321099 -0.574820
v 1.149640 -0.321099 0.000000
v 0.832495 -0.792711 0.480642
v 0.480642 -0.792711 0.832495
v 0.000000 -0.792711 0.961283
v -0.480642 -0.792711 0.832495
v -0.832495 -0.792711 0.480642
v -0.961283 -0.792711 0.000000
v -0.832495 -0.792711 -0.480642
v -0.480642 -0.792711 -0.832495
v 0.000000 -0.792711 -0.961283
v 0.480642 -0.792711 -0.832495
v 0.832495 -0.792711 -0.480642
v 0.961283 -0.792711 0.000000
v -0.673802 0.638399 -0.389020
v -0.778040 0.638399 0.000000
v -0.673802 0.638399 0.389020
v -0.389020 0.638399 0.673802
v 0.000000 0.638399 0.778040
v 0.389020 0.638399 0.673802
v 0.673802 0.638399 0.389020
v 0.778040 0.638399 0.000000
v 0.673802 0.638399 -0.389020
v 0.389020 0.638399 -0.673802
v 0.000000 0.638399 -0.778040
v -0.389020 0.638399 -0.673802
v 0.000000 1.000000 -0.750000
v -0.375000 1.000000 -0.649519
v -0.649519 1.000000 -0.375000
v -0.750000 1.000000 0.000000
v -0.649519 1.000000 0.375000
v -0.375000 1.000000 0.649519
v 0.000000 1.000000 0.750000
v 0.375000 1.000000 0.649519
v 0.649519 1.000000 0.375000
v 0.750000 1.000000 0.000000
v 0.649519 1.000000 -0.375000
v 0.375000 1.000000 -0.649519
vt 0.604936 0.001819
vt 0.686076 0.001819
vt 0.686076 0.035458
vt 0.608077 0.035458
vt 0.767217 0.001819
vt 0.764075 0.035458
vt 0.686076 0.111992
vt 0.592794 0.111992
vt 0.545536 0.001819
vt 0.550978 0.035458
vt 0.826616 0.001819
vt 0.821175 0.035458
vt 0.779359 0.111992
vt 0.686076 0.216209
vt 0.592794 0.216209
vt 0.524506 0.111992
vt 0.847646 0.111992
vt 0.779359 0.216209
vt 0.686076 0.292742
vt 0.608077 0.292742
vt 0.524506 0.216209
vt 0.847646 0.216209
vt 0.764075 0.292742
vt 0.686076 0.326382
vt 0.604936 0.326382
vt 0.550978 0.292742
vt 0.821175 0.292742
vt 0.767217 0.326382
vt 0.545536 0.326382
vt 0.826616 0.326382
vt 0.082421 0.001819
vt 0.163562 0.001819
vt 0.163562 0.035458
vt 0.085563 0.035458
vt 0.244703 0.001819
vt 0.241561 0.035458
vt 0.163562 0.111992
vt 0.070280 0.111992
vt 0.023022 0.001819
vt 0.028464 0.035458
vt 0.304102 0.001819
vt 0.298660 0.035458
vt 0.256844 0.111992
vt 0.163562 0.216209
vt 0.070280 0.216209
vt 0.001992 0.111992
vt 0.325132 0.111992
vt 0.256844 0.216209
vt 0.163562 0.292742
vt 0.085563 0.292742
vt 0.001992 0.216209
vt 0.325132 0.216209
vt 0.241561 0.292742
vt 0.163562 0.326382
vt 0.082421 0.326382
vt 0.028464 0.292742
vt 0.298660 0.292742
vt 0.244703 0.326382
vt 0.023022 0.326382
vt 0.304102 0.326382
vt 0.580861 0.735901
vt 0.580861 0.813315
vt 0.506212 0.813315
vt 0.506212 0.733006
vt 0.580861 0.890730
vt 0.506212 0.893624
vt 0.580861 0.679229
vt 0.506212 0.674216
vt 0.580861 0.947401
vt 0.506212 0.952415
vt 0.665156 0.735900
vt 0.665156 0.813315
vt 0.590508 0.813315
vt 0.590508 0.733006
vt 0.665156 0.890730
vt 0.590508 0.893624
vt 0.665156 0.679229
vt 0.590508 0.674216
vt 0.665156 0.947401
vt 0.590508 0.952414
vt 0.502487 0.411514
vt 0.561886 0.352115
vt 0.643027 0.492654
vt 0.643027 0.330373
vt 0.480745 0.492654
vt 0.724167 0.352115
vt 0.502487 0.573795
vt 0.783566 0.411514
vt 0.561886 0.633194
vt 0.805308 0.492654
vt 0.643027 0.654936
vt 0.783566 0.573795
vt 0.724167 0.633194
vt 0.475937 0.915143
vt 0.417147 0.973933
vt 0.336838 0.834834
vt 0.336838 0.995452
vt 0.497456 0.834834
vt 0.256529 0.973933
vt 0.475937 0.754525
vt 0.197739 0.915143
vt 0.417147 0.695735
vt 0.176220 0.834834
vt 0.336838 0.674216
vt 0.197739 0.754525
vt 0.256529 0.695735
vt 0.312329 0.654936
vt 0.231188 0.633194
vt 0.251474 0.598059
vt 0.312329 0.614365
vt 0.171789 0.573795
vt 0.206924 0.553510
vt 0.393470 0.633194
vt 0.373184 0.598059
vt 0.150048 0.492654
vt 0.190618 0.492654
vt 0.452869 0.573795
vt 0.417734 0.553510
vt 0.171789 0.411514
vt 0.206924 0.431799
vt 0.474610 0.492654
vt 0.434040 0.492654
vt 0.231188 0.352115
vt 0.251474 0.387250
vt 0.452869 0.411514
vt 0.417734 0.431799
vt 0.312329 0.330373
vt 0.312329 0.370943
vt 0.393470 0.352115
vt 0.373184 0.387250
vt 0.505983 0.326382
vt 0.424842 0.326382
vt 0.424842 0.292743
vt 0.502841 0.292743
vt 0.343702 0.326382
vt 0.346843 0.292743
vt 0.424842 0.216209
vt 0.518125 0.216209
vt 0.331560 0.216209
vt 0.424842 0.111992
vt 0.518125 0.111992
vt 0.331560 0.111992
vt 0.424842 0.035458
vt 0.502841 0.035458
vt 0.346843 0.035458
vt 0.424842 0.001819
vt 0.505983 0.001819
vt 0.343702 0.001819
vt 0.823585 0.330373
vt 0.904726 0.330373
vt 0.904726 0.364012
vt 0.826727 0.364012
vt 0.985866 0.330373
vt 0.982725 0.364012
vt 0.904726 0.440546
vt 0.811443 0.440546
vt 0.998008 0.440546
vt 0.904726 0.544763
vt 0.811443 0.544763
vt 0.998008 0.544763
vt 0.904726 0.621296
vt 0.826727 0.621296
vt 0.982725 0.621296
vt 0.904726 0.654935
vt 0.823585 0.654935
vt 0.985866 0.654935
vt 0.674803 0.831940
vt 0.674803 0.754525
vt 0.749452 0.754525
vt 0.749452 0.834834
vt 0.674803 0.677110
vt 0.749452 0.674216
vt 0.833747 0.677110
vt 0.833747 0.754525
vt 0.759099 0.754525
vt 0.759099 0.674216
vt 0.833747 0.831940
vt 0.759099 0.834834
vn 0.695873 0.177548 -0.695872
vn 0.695873 0.177548 -0.695872
vn 0.689855 -0.219544 -0.689855
vn 0.689855 -0.219544 -0.689855
vn 0.254707 0.177547 -0.950580
vn 0.254707 0.177547 -0.950580
vn 0.252505 -0.219544 -0.942360
vn 0.252505 -0.219544 -0.942360
vn -0.254707 0.177547 -0.950580
vn -0.254707 0.177547 -0.950580
vn -0.252505 -0.219544 -0.942360
vn -0.252505 -0.219544 -0.942360
vn -0.695872 0.177547 -0.695872
vn -0.695872 0.177547 -0.695872
vn -0.689855 -0.219544 -0.689855
vn -0.689855 -0.219544 -0.689855
vn -0.950579 0.177548 -0.254707
vn -0.950579 0.177548 -0.254707
vn -0.942360 -0.219544 -0.252505
vn -0.942360 -0.219544 -0.252505
vn -0.950579 0.177548 0.254707
vn -0.950579 0.177548 0.254707
vn -0.942360 -0.219544 0.252505
vn -0.942360 -0.219544 0.252505
vn -0.695873 0.177548 0.695872
vn -0.695873 0.177548 0.695872
vn -0.689855 -0.219544 0.689855
vn -0.689855 -0.219544 0.689855
vn -0.254707 0.177547 0.950580
vn -0.254707 0.177547 0.950580
vn -0.252505 -0.219544 0.942360
vn -0.252505 -0.219544 0.942360
vn 0.254707 0.177547 0.950580
vn 0.254707 0.177547 0.950580
vn 0.252505 -0.219544 0.942360
vn 0.252505 -0.219544 0.942360
vn 0.695872 0.177547 0.695872
vn 0.695873 0.177547 0.695872
vn 0.689855 -0.219544 0.689855
vn 0.689855 -0.219544 0.689855
vn 0.950579 0.177548 0.254707
vn 0.950579 0.177548 0.254707
vn 0.942360 -0.219544 0.252505
vn 0.942360 -0.219544 0.252505
vn 0.950579 0.177548 -0.254707
vn 0.950579 0.177548 -0.254707
vn 0.942360 -0.219544 -0.252505
vn 0.942360 -0.219544 -0.252505
vn 0.000000 -1.000000 0.000000
vn 0.000000 -1.000000 0.000000
vn -0.000000 -1.000000 0.000000
vn 0.000000 -1.000000 0.000000
vn 0.000000 -1.000000 0.000000
vn 0.000000 -1.000000 0.000000
vn 0.000000 -1.000000 0.000000
vn -0.000000 -1.000000 0.000000
vn -0.000000 -1.000000 0.000000
vn 0.000000 -1.000000 0.000000
vn -0.000000 -1.000000 0.000000
vn -0.000000 -1.000000 0.000000
vn 0.000000 -1.000000 0.000000
vn -0.660768 0.646412 0.381494
vn -0.381494 0.646412 0.660768
vn 0.000000 1.000000 -0.000000
vn -0.000000 0.646412 0.762989
vn 0.381494 0.646412 0.660768
vn 0.660768 0.646412 0.381494
vn 0.762989 0.646412 -0.000000
vn 0.660768 0.646412 -0.381494
vn 0.381494 0.646412 -0.660768
vn -0.000000 0.646412 -0.762989
vn -0.381494 0.646412 -0.660768
vn -0.660768 0.646412 -0.381494
vn -0.762989 0.646412 -0.000000
vn 0.689855 0.219544 0.689855
vn 0.689855 0.219544 0.689855
vn 0.695872 -0.177547 0.695872
vn 0.695872 -0.177547 0.695872
vn 0.252505 0.219544 0.942360
vn 0.252505 0.219544 0.942360
vn 0.254707 -0.177547 0.950580
vn 0.254707 -0.177547 0.950580
vn -0.252505 0.219544 0.942360
vn -0.252505 0.219544 0.942360
vn -0.254707 -0.177547 0.950580
vn -0.254707 -0.177547 0.950580
vn -0.689855 0.219544 0.689855
vn -0.689855 0.219544 0.689855
vn -0.695873 -0.177547 0.695872
vn -0.695873 -0.177547 0.695872
vn -0.942360 0.219544 0.252505
vn -0.942360 0.219544 0.252505
vn -0.950579 -0.177547 0.254707
vn -0.950579 -0.177547 0.254707
vn -0.942360 0.219544 -0.252505
vn -0.942360 0.219544 -0.252505
vn -0.950579 -0.177547 -0.254707
vn -0.950579 -0.177547 -0.254707
vn -0.689855 0.219544 -0.689855
vn -0.689855 0.219544 -0.689855
vn -0.695872 -0.177547 -0.695872
vn -0.695872 -0.177547 -0.695872
vn -0.252505 0.219544 -0.942360
vn -0.252505 0.219544 -0.942360
vn -0.254707 -0.177547 -0.950580
vn -0.254707 -0.177547 -0.950580
vn 0.252505 0.219544 -0.942360
vn 0.252505 0.219544 -0.942360
vn 0.254707 -0.177547 -0.950580
vn 0.254707 -0.177547 -0.950580
vn 0.689855 0.219544 -0.689855
vn 0.689855 0.219544 -0.689855
vn 0.695873 -0.177547 -0.695872
vn 0.695873 -0.177547 -0.695872
vn 0.942360 0.219544 -0.252505
vn 0.942360 0.219544 -0.252505
vn 0.950579 -0.177547 -0.254707
vn 0.950579 -0.177547 -0.254707
vn 0.942360 0.219544 0.252505
vn 0.942360 0.219544 0.252505
vn 0.950579 -0.177547 0.254707
vn 0.950579 -0.177547 0.254707
vn 0.699332 0.147888 0.699332
vn 0.699332 0.147888 0.699332
vn 0.255973 0.147888 0.955305
vn 0.255973 0.147888 0.955305
vn -0.255973 0.147888 0.955305
vn -0.255973 0.147888 0.955305
vn -0.699332 0.147888 0.699332
vn -0.699332 0.147888 0.699332
vn -0.955305 0.147888 0.255973
vn -0.955305 0.147888 0.255973
vn -0.955305 0.147888 -0.255973
vn -0.955305 0.147888 -0.255973
vn -0.699332 0.147888 -0.699332
vn -0.699332 0.147888 -0.699332
vn -0.255973 0.147888 -0.955305
vn -0.255973 0.147888 -0.955305
vn 0.255973 0.147888 -0.955305
vn 0.255973 0.147888 -0.955305
vn 0.699332 0.147888 -0.699332
vn 0.699332 0.147888 -0.699332
vn 0.955305 0.147888 -0.255973
vn 0.955305 0.147888 -0.255973
vn 0.955305 0.147888 0.255973
vn 0.955305 0.147888 0.255973
vn 0.699332 -0.147888 0.699332
vn 0.699332 -0.147888 0.699332
vn 0.255973 -0.147888 0.955305
vn 0.255973 -0.147888 0.955305
vn -0.255973 -0.147888 0.955305
vn -0.255973 -0.147888 0.955305
vn -0.699332 -0.147888 0.699332
vn -0.699331 -0.147888 0.699332
vn -0.955305 -0.147888 0.255973
vn -0.955305 -0.147888 0.255973
vn -0.955305 -0.147888 -0.255973
vn -0.955305 -0.147888 -0.255973
vn -0.699332 -0.147888 -0.699332
vn -0.699332 -0.147888 -0.699332
vn -0.255973 -0.147888 -0.955305
vn -0.255973 -0.147888 -0.955305
vn 0.255973 -0.147888 -0.955305
vn 0.255973 -0.147888 -0.955305
vn 0.699332 -0.147888 -0.699332
vn 0.699332 -0.147888 -0.699332
vn 0.955305 -0.147888 -0.255973
vn 0.955305 -0.147888 -0.255973
vn 0.955305 -0.147888 0.255973
vn 0.955305 -0.147888 0.255973
vn 0.664885 0.640758 0.383871
vn 0.767743 0.640758 0.000000
vn 0.664885 0.640758 -0.383871
vn 0.383871 0.640758 -0.664885
vn 0.000000 0.640758 -0.767743
vn -0.383871 0.640758 -0.664885
vn -0.664885 0.640758 -0.383871
vn -0.767743 0.640758 -0.000000
vn -0.664885 0.640758 0.383871
vn -0.383871 0.640758 0.664885
vn 0.000000 0.640758 0.767743
vn 0.383871 0.640758 0.664885
vn 0.000000 1.000000 0.000000
vn 0.000000 1.000000 0.000000
vn 0.000000 1.000000 0.000000
vn 0.000000 1.000000 0.000000
vn 0.000000 1.000000 0.000000
vn 0.000000 1.000000 0.000000
vn 0.000000 1.000000 0.000000
vn 0.000000 1.000000 0.000000
vn 0.000000 1.000000 0.000000
vn 0.000000 1.000000 0.000000
vn 0.000000 1.000000 0.000000
vn 0.000000 1.000000 0.000000
s 1
g Barrel_low_poly
usemtl initialShadingGroup
f 1/35/1 2/41/2 72/42/3 73/36/4
s 2
f 2/131/5 3/132/6 71/133/7 72/134/8
s 3
f 3/132/9 4/135/10 70/136/11 71/133/12
s 4
f 4/9/13 5/1/14 69/4/15 70/10/16
s 5
f 5/1/17 6/2/18 68/3/19 69/4/20
s 6
f 6/2/21 7/5/22 67/6/23 68/3/24
s 7
f 7/5/25 8/11/26 66/12/27 67/6/28
s 8
f 8/149/29 9/150/30 65/151/31 66/152/32
s 9
f 9/150/33 10/153/34 64/154/35 65/151/36
s 10
f 10/39/37 11/31/38 63/34/39 64/40/40
s 11
f 11/31/41 12/32/42 74/33/43 63/34/44
s 12
f 12/32/45 1/35/46 73/36/47 74/33/48
s 13
f 2/81/49 1/82/50 25/83/51
f 3/85/52 2/81/49 25/83/51
f 4/87/53 3/85/52 25/83/51
f 5/89/54 4/87/53 25/83/51
f 6/91/55 5/89/54 25/83/51
f 7/93/56 6/91/55 25/83/51
f 8/92/57 7/93/56 25/83/51
f 9/90/58 8/92/57 25/83/51
f 10/88/59 9/90/58 25/83/51
f 11/86/60 10/88/59 25/83/51
f 12/84/61 11/86/60 25/83/51
f 1/82/50 12/84/61 25/83/51
s 14
f 83/94/62 84/95/63 26/96/64
f 84/95/63 85/97/65 26/96/64
f 85/97/65 86/99/66 26/96/64
f 86/99/66 75/101/67 26/96/64
f 75/101/67 76/103/68 26/96/64
f 76/103/68 77/105/69 26/96/64
f 77/105/69 78/106/70 26/96/64
f 78/106/70 79/104/71 26/96/64
f 79/104/71 80/102/72 26/96/64
f 80/102/72 81/100/73 26/96/64
f 81/100/73 82/98/74 26/96/64
f 82/98/74 83/94/62 26/96/64
s 10
f 28/56/75 27/50/76 23/55/77 22/59/78
s 9
f 29/161/79 28/163/80 22/166/81 21/164/82
s 8
f 30/162/83 29/161/84 21/164/85 20/165/86
s 7
f 31/23/87 30/27/88 20/30/89 19/28/90
s 6
f 32/19/91 31/23/92 19/28/93 18/24/94
s 5
f 33/20/95 32/19/96 18/24/97 17/25/98
s 4
f 34/26/99 33/20/100 17/25/101 16/29/102
s 3
f 35/143/103 34/145/104 16/148/105 15/146/106
s 2
f 36/144/107 35/143/108 15/146/109 14/147/110
s 1
f 37/53/111 36/57/112 14/60/113 13/58/114
s 12
f 38/49/115 37/53/116 13/58/117 24/54/118
s 11
f 27/50/119 38/49/120 24/54/121 23/55/122
s 10
f 40/51/123 39/45/124 27/50/76 28/56/75
s 9
f 41/158/125 40/160/126 28/163/80 29/161/79
s 8
f 42/159/127 41/158/128 29/161/84 30/162/83
s 7
f 43/18/129 42/22/130 30/27/88 31/23/87
s 6
f 44/14/131 43/18/132 31/23/92 32/19/91
s 5
f 45/15/133 44/14/134 32/19/96 33/20/95
s 4
f 46/21/135 45/15/136 33/20/100 34/26/99
s 3
f 47/140/137 46/142/138 34/145/104 35/143/103
s 2
f 48/141/139 47/140/140 35/143/108 36/144/107
s 1
f 49/48/141 48/52/142 36/57/112 37/53/111
s 12
f 50/44/143 49/48/144 37/53/116 38/49/115
s 11
f 39/45/145 50/44/146 38/49/120 27/50/119
s 10
f 52/46/147 51/38/148 39/45/124 40/51/123
s 9
f 53/155/149 52/157/150 40/160/126 41/158/125
s 8
f 54/156/151 53/155/152 41/158/128 42/159/127
s 7
f 55/13/153 54/17/154 42/22/130 43/18/129
s 6
f 56/7/155 55/13/156 43/18/132 44/14/131
s 5
f 57/8/157 56/7/158 44/14/134 45/15/133
s 4
f 58/16/159 57/8/160 45/15/136 46/21/135
s 3
f 59/137/161 58/139/162 46/142/138 47/140/137
s 2
f 60/138/163 59/137/164 47/140/140 48/141/139
s 1
f 61/43/165 60/47/166 48/52/142 49/48/141
s 12
f 62/37/167 61/43/168 49/48/144 50/44/143
s 11
f 51/38/169 62/37/170 50/44/146 39/45/145
s 10
f 64/40/40 63/34/39 51/38/148 52/46/147
s 9
f 65/151/36 64/154/35 52/157/150 53/155/149
s 8
f 66/152/32 65/151/31 53/155/152 54/156/151
s 7
f 67/6/28 66/12/27 54/17/154 55/13/153
s 6
f 68/3/24 67/6/23 55/13/156 56/7/155
s 5
f 69/4/20 68/3/19 56/7/158 57/8/157
s 4
f 70/10/16 69/4/15 57/8/160 58/16/159
s 3
f 71/133/12 70/136/11 58/139/162 59/137/161
s 2
f 72/134/8 71/133/7 59/137/164 60/138/163
s 1
f 73/36/4 72/42/3 60/47/166 61/43/165
s 12
f 74/33/48 73/36/47 61/43/168 62/37/167
s 11
f 63/34/44 74/33/43 62/37/170 51/38/169
s 14
f 89/61/171 90/62/172 76/63/68 75/64/67
f 90/62/172 91/65/173 77/66/69 76/63/68
f 91/65/173 92/69/174 78/70/70 77/66/69
f 92/167/174 93/168/175 79/169/71 78/170/70
f 93/168/175 94/171/176 80/172/72 79/169/71
f 94/77/176 95/71/177 81/74/73 80/78/72
f 95/71/177 96/72/178 82/73/74 81/74/73
f 96/72/178 97/75/179 83/76/62 82/73/74
f 97/75/179 98/79/180 84/80/63 83/76/62
f 98/173/180 87/174/181 85/175/65 84/176/63
f 87/174/181 88/177/182 86/178/66 85/175/65
f 88/67/182 89/61/171 75/64/67 86/68/66
f 15/107/183 16/108/184 88/109/182 87/110/181
f 16/108/184 17/111/185 89/112/171 88/109/182
f 17/111/185 18/115/186 90/116/172 89/112/171
f 18/115/186 19/119/187 91/120/173 90/116/172
f 19/119/187 20/123/188 92/124/174 91/120/173
f 20/123/188 21/127/189 93/128/175 92/124/174
f 21/127/189 22/129/190 94/130/176 93/128/175
f 22/129/190 23/125/191 95/126/177 94/130/176
f 23/125/191 24/121/192 96/122/178 95/126/177
f 24/121/192 13/117/193 97/118/179 96/122/178
f 13/117/193 14/113/194 98/114/180 97/118/179
f 14/113/194 15/107/183 87/110/181 98/114/180
