# Blender v2.79 (sub 0) OBJ File: 'CylinderHat.blend'
# www.blender.org
mtllib CylinderHat.mtl
o Cube_Cube.001
v 0.268358 -0.381654 -1.247997
v -0.231642 -0.381654 -1.381971
v -0.231642 -0.791642 -1.381971
v -0.231642 1.098648 -1.381971
v 0.268358 -0.791642 -1.247997
v 0.268358 1.098648 -1.247997
v 0.634384 -0.791642 -0.881971
v 0.634384 1.098648 -0.881971
v 0.768358 -0.791642 -0.381971
v 0.768358 1.098648 -0.381971
v 0.634384 -0.791642 0.118029
v 0.634384 1.098648 0.118029
v 0.268359 -0.791642 0.484054
v 0.268359 1.098648 0.484054
v -0.231641 -0.791642 0.618029
v -0.231641 1.098648 0.618029
v -0.731641 -0.791642 0.484054
v -0.731641 1.098648 0.484054
v -1.097667 -0.791642 0.118029
v -1.097667 1.098648 0.118029
v -1.231642 -0.791642 -0.381971
v -1.231642 1.098648 -0.381971
v -1.097667 -0.791642 -0.881971
v -1.097667 1.098648 -0.881971
v -0.731642 -0.791642 -1.247996
v -0.731642 1.098648 -1.247996
v 0.634384 -0.381654 -0.881971
v 0.768358 -0.381654 -0.381971
v 0.634384 -0.381654 0.118029
v 0.268359 -0.381654 0.484054
v -0.231641 -0.381654 0.618029
v -0.731641 -0.381654 0.484054
v -1.097667 -0.381654 0.118029
v -1.231642 -0.381654 -0.381971
v -1.097667 -0.381654 -0.881971
v -0.731642 -0.381654 -1.247996
v -0.231642 -0.447562 -2.137572
v 0.646159 -0.266630 -1.902366
v 1.288753 -0.266630 -1.259772
v -0.231642 -0.651898 -2.137572
v 0.646159 -0.452476 -1.902366
v 1.523959 -0.447562 -0.381971
v 1.288753 -0.452476 -1.259772
v 1.288753 -0.507217 0.495829
v 1.523959 -0.651898 -0.381971
v 0.646159 -0.507217 1.138423
v 1.288753 -0.696540 0.495829
v -0.231641 -0.447562 1.373629
v 0.646159 -0.696540 1.138423
v -1.109442 -0.266630 1.138423
v -0.231641 -0.592696 1.373629
v -1.752036 -0.266630 0.495829
v -1.109442 -0.404241 1.138423
v -1.987242 -0.571018 -0.381971
v -1.752036 -0.404241 0.495829
v -1.752037 -0.507217 -1.259771
v -1.987242 -0.696540 -0.381971
v -1.109443 -0.383761 -1.902366
v -1.752037 -0.696540 -1.259771
v -1.109443 -0.598953 -1.902366
v -0.231642 1.208358 -1.249889
v 0.202317 1.208358 -1.133610
v 0.519997 1.208358 -0.815930
v 0.636276 1.208358 -0.381971
v 0.519997 1.208358 0.051987
v 0.202317 1.208358 0.369667
v -0.231641 1.208358 0.485946
v -0.665600 1.208358 0.369667
v -0.983280 1.208358 0.051988
v -1.099559 1.208358 -0.381971
v -0.983280 1.208358 -0.815930
v -0.665601 1.208358 -1.133610
vn -0.7071 0.0000 -0.7071
vn -0.2148 0.9766 -0.0123
vn 0.2588 0.0000 -0.9659
vn -0.2588 0.0000 -0.9659
vn 0.2644 -0.9419 -0.2072
vn 0.7071 0.0000 -0.7071
vn -0.9659 0.0000 0.2588
vn -0.0891 -0.9789 -0.1838
vn 0.9659 0.0000 -0.2588
vn -0.7071 0.0000 0.7071
vn 0.2980 -0.9069 -0.2980
vn 0.9659 0.0000 0.2588
vn -0.2588 0.0000 0.9659
vn -0.1248 -0.9916 -0.0334
vn 0.7071 0.0000 0.7071
vn 0.2588 0.0000 0.9659
vn -0.2481 -0.9320 0.2642
vn -0.1020 0.9768 -0.1885
vn -0.3315 -0.8833 0.3315
vn 0.1101 0.9878 -0.1101
vn 0.1301 0.9915 0.0003
vn -0.9659 0.0000 -0.2588
vn -0.4610 0.7582 -0.4610
vn -0.1301 0.9915 -0.0003
vn 0.0737 0.9907 0.1148
vn -0.1221 0.9925 -0.0006
vn 0.2072 -0.9419 -0.2644
vn 0.0003 0.9915 0.1301
vn 0.0311 0.9979 -0.0565
vn 0.1148 0.9907 0.0737
vn 0.1614 -0.9868 0.0113
vn -0.0924 -0.9744 -0.2050
vn 0.1199 0.9855 0.1199
vn -0.1101 0.9878 0.1101
vn 0.0914 -0.9916 0.0914
vn -0.0178 -0.9778 0.2087
vn -0.2133 -0.9210 0.3259
vn 0.0000 1.0000 0.0000
vn 0.1688 0.7582 -0.6298
vn -0.1688 0.7582 -0.6298
vn 0.4610 0.7582 -0.4610
vn 0.6298 0.7582 -0.1688
vn 0.6298 0.7582 0.1688
vn 0.4610 0.7582 0.4610
vn 0.1688 0.7582 0.6298
vn -0.1688 0.7582 0.6298
vn -0.4610 0.7582 0.4610
vn -0.6298 0.7582 0.1688
vn -0.6298 0.7582 -0.1688
usemtl None
s off
f 59//1 56//1 58//1 60//1
f 34//2 35//2 56//2 54//2
f 2//3 4//3 6//3 1//3
f 60//4 58//4 37//4 40//4
f 9//5 7//5 43//5 45//5
f 1//6 6//6 8//6 27//6
f 55//7 52//7 54//7 57//7
f 25//8 23//8 59//8 60//8
f 27//9 8//9 10//9 28//9
f 53//10 50//10 52//10 55//10
f 7//11 5//11 41//11 43//11
f 28//12 10//12 12//12 29//12
f 51//13 48//13 50//13 53//13
f 23//14 21//14 57//14 59//14
f 29//15 12//15 14//15 30//15
f 49//16 46//16 48//16 51//16
f 21//17 19//17 55//17 57//17
f 30//16 14//16 16//16 31//16
f 47//15 44//15 46//15 49//15
f 33//18 34//18 54//18 52//18
f 31//13 16//13 18//13 32//13
f 45//12 42//12 44//12 47//12
f 19//19 17//19 53//19 55//19
f 32//10 18//10 20//10 33//10
f 43//9 39//9 42//9 45//9
f 32//20 33//20 52//20 50//20
f 33//7 20//7 22//7 34//7
f 41//6 38//6 39//6 43//6
f 31//21 32//21 50//21 48//21
f 34//22 22//22 24//22 35//22
f 26//23 24//23 71//23 72//23
f 2//24 1//24 38//24 37//24
f 35//1 24//1 26//1 36//1
f 57//22 54//22 56//22 59//22
f 30//25 31//25 48//25 46//25
f 36//4 26//4 4//4 2//4
f 40//3 37//3 38//3 41//3
f 35//26 36//26 58//26 56//26
f 5//27 3//27 40//27 41//27
f 27//28 28//28 42//28 39//28
f 36//29 2//29 37//29 58//29
f 28//30 29//30 44//30 42//30
f 11//31 9//31 45//31 47//31
f 3//32 25//32 60//32 40//32
f 29//33 30//33 46//33 44//33
f 1//34 27//34 39//34 38//34
f 13//35 11//35 47//35 49//35
f 15//36 13//36 49//36 51//36
f 17//37 15//37 51//37 53//37
f 62//38 61//38 72//38 71//38 70//38 69//38 68//38 67//38 66//38 65//38 64//38 63//38
f 6//39 4//39 61//39 62//39
f 4//40 26//40 72//40 61//40
f 8//41 6//41 62//41 63//41
f 10//42 8//42 63//42 64//42
f 12//43 10//43 64//43 65//43
f 14//44 12//44 65//44 66//44
f 16//45 14//45 66//45 67//45
f 18//46 16//46 67//46 68//46
f 20//47 18//47 68//47 69//47
f 22//48 20//48 69//48 70//48
f 24//49 22//49 70//49 71//49
