# Blender v2.79 (sub 0) OBJ File: 'hand_torch.blend'
# www.blender.org
mtllib hand_torch.mtl
o Cylinder_Cylinder.002
v -0.000000 -0.353326 -0.021907
v -0.000000 0.297133 -0.081943
v 0.015491 -0.353326 -0.015491
v 0.057942 0.297133 -0.057942
v 0.021907 -0.353326 0.000000
v 0.081943 0.297133 0.000000
v 0.015491 -0.353326 0.015491
v 0.057942 0.297133 0.057942
v -0.000000 -0.353326 0.021907
v -0.000000 0.297133 0.081943
v -0.015491 -0.353326 0.015491
v -0.057942 0.297133 0.057942
v -0.021907 -0.353326 0.000000
v -0.081943 0.297133 -0.000000
v -0.015491 -0.353326 -0.015491
v -0.057942 0.297133 -0.057942
v -0.000000 -0.497500 -0.026749
v 0.018915 -0.497500 -0.018915
v 0.070749 0.296725 -0.070749
v -0.000000 0.296725 -0.100054
v 0.026749 -0.497500 0.000000
v 0.100054 0.296725 0.000000
v 0.018915 -0.497500 0.018915
v 0.070749 0.296725 0.070749
v -0.000000 -0.497500 0.026749
v -0.000000 0.296725 0.100054
v -0.018915 -0.497500 0.018915
v -0.070749 0.296725 0.070749
v -0.026749 -0.497500 0.000000
v -0.100054 0.296725 -0.000000
v -0.018915 -0.497500 -0.018915
v -0.070749 0.296725 -0.070749
v 0.057942 0.266155 -0.057942
v -0.000000 0.266155 -0.081943
v 0.081943 0.266155 0.000000
v 0.057942 0.266155 0.057942
v -0.000000 0.266155 0.081943
v -0.057942 0.266155 0.057942
v -0.081943 0.266155 -0.000000
v -0.057942 0.266155 -0.057942
v 0.056326 0.268709 -0.056326
v -0.056326 0.262849 -0.058725
v 0.056326 0.268709 0.056326
v -0.056326 0.268709 0.056326
v 0.033796 0.267828 -0.068891
v 0.011265 0.280994 -0.086677
v -0.011265 0.280079 -0.076194
v -0.033796 0.262242 -0.067998
v -0.033796 0.273557 0.068858
v -0.011265 0.265352 0.086466
v 0.011265 0.266760 0.080184
v 0.033796 0.272399 0.068789
v 0.070130 0.263932 0.033796
v 0.082715 0.285066 0.011265
v 0.079888 0.266347 -0.011265
v 0.081649 0.268709 -0.033796
v -0.074998 0.277793 -0.033796
v -0.077381 0.265405 -0.011265
v -0.084436 0.261578 0.011265
v -0.072599 0.271858 0.033796
v 0.033796 0.274703 -0.033796
v 0.033796 0.263509 -0.011265
v 0.033796 0.264968 0.011265
v 0.033796 0.268709 0.033796
v 0.011265 0.268709 -0.033796
v 0.011265 0.268709 -0.011265
v 0.011265 0.271585 0.011265
v 0.011265 0.265175 0.033796
v -0.011265 0.268709 -0.033796
v -0.011265 0.263395 -0.011265
v -0.011265 0.264047 0.011265
v -0.012494 0.266818 0.030565
v -0.033796 0.268709 -0.033796
v -0.033796 0.267614 -0.011265
v -0.033796 0.276041 0.011265
v -0.033796 0.271503 0.033796
vt 0.000000 0.000000
vt 1.000000 0.000000
vt 1.000000 1.000000
vt 0.000000 1.000000
vt 0.000000 0.000000
vt 1.000000 0.000000
vt 1.000000 1.000000
vt 0.000000 1.000000
vt 0.000000 0.000000
vt 1.000000 0.000000
vt 1.000000 1.000000
vt 0.000000 1.000000
vt 0.000000 0.000000
vt 1.000000 0.000000
vt 1.000000 1.000000
vt 0.000000 1.000000
vt 0.000000 0.000000
vt 1.000000 0.000000
vt 1.000000 1.000000
vt 0.000000 1.000000
vt 0.000000 0.000000
vt 1.000000 0.000000
vt 1.000000 1.000000
vt 0.000000 1.000000
vt 0.000000 0.000000
vt 1.000000 0.000000
vt 1.000000 1.000000
vt 0.000000 1.000000
vt 0.000000 0.000000
vt 1.000000 0.000000
vt 1.000000 1.000000
vt 0.000000 1.000000
vt 0.000000 0.000000
vt 1.000000 1.000000
vt 0.000000 1.000000
vt 0.500000 1.000000
vt 0.853553 0.853553
vt 1.000000 0.500000
vt 0.853553 0.146447
vt 0.500000 0.000000
vt 0.146447 0.146447
vt 0.000000 0.500000
vt 0.146447 0.853553
vt 0.000000 0.000000
vt 1.000000 0.000000
vt 0.000000 0.000000
vt 1.000000 0.000000
vt 1.000000 1.000000
vt 0.000000 1.000000
vt 0.000000 0.000000
vt 1.000000 0.000000
vt 1.000000 1.000000
vt 0.000000 0.000000
vt 1.000000 0.000000
vt 0.000000 1.000000
vt 0.000000 0.000000
vt 1.000000 0.000000
vt 0.000000 0.000000
vt 1.000000 0.000000
vt 1.000000 1.000000
vt 0.000000 1.000000
vt 0.000000 0.000000
vt 1.000000 0.000000
vt 1.000000 1.000000
vt 0.000000 0.000000
vt 1.000000 0.000000
vt 0.000000 1.000000
vt 0.000000 0.000000
vt 1.000000 0.000000
vt 0.000000 1.000000
vt 0.000000 0.000000
vt 1.000000 0.000000
vt 1.000000 1.000000
vt 0.000000 0.000000
vt 1.000000 0.000000
vt 1.000000 1.000000
vt 0.000000 0.000000
vt 1.000000 0.000000
vt 0.000000 1.000000
vt 0.000000 0.000000
vt 1.000000 0.000000
vt 1.000000 1.000000
vt 0.000000 0.000000
vt 1.000000 0.000000
vt 1.000000 1.000000
vt 1.000000 0.000000
vt 0.000000 1.000000
vt 0.000000 0.000000
vt 1.000000 0.000000
vt 0.000000 1.000000
vt 0.500000 1.000000
vt 0.853553 0.853553
vt 1.000000 0.500000
vt 0.853553 0.146447
vt 0.500000 0.000000
vt 0.146447 0.146447
vt 0.000000 0.500000
vt 0.146447 0.853553
vt 1.000000 1.000000
vt 0.000000 1.000000
vt 1.000000 1.000000
vt 0.000000 1.000000
vt 1.000000 1.000000
vt 0.000000 1.000000
vt 1.000000 1.000000
vt 0.000000 1.000000
vt 1.000000 1.000000
vt 0.000000 1.000000
vt 1.000000 1.000000
vt 0.000000 1.000000
vt 1.000000 1.000000
vt 0.000000 1.000000
vt 0.196024 0.548058
vt 0.059895 0.749302
vt 0.000099 0.586068
vt 0.013981 0.425295
vt 0.558803 0.006233
vt 0.432686 0.195779
vt 0.250491 0.073917
vt 0.393591 0.000099
vt 0.354151 0.313376
vt 0.112825 0.151577
vt 0.287897 0.448544
vt 0.001643 0.246506
vt 0.848852 0.816429
vt 0.725558 0.905804
vt 0.547886 0.785535
vt 0.627357 0.668154
vt 0.430480 0.706322
vt 0.509672 0.588872
vt 0.312651 0.627399
vt 0.392700 0.509974
vt 0.981745 0.736225
vt 0.706413 0.550486
vt 0.588910 0.471386
vt 0.471582 0.392422
vt 0.967954 0.556223
vt 0.785944 0.433185
vt 0.668003 0.353905
vt 0.550687 0.274478
vt 0.981745 0.395356
vt 0.953535 0.185137
vt 0.830427 0.115208
vt 0.722852 0.018368
vt 0.598919 0.990048
vt 0.403303 0.999901
vt 0.277294 0.932690
vt 0.135272 0.890763
vn 0.0093 0.9997 0.0225
vn -0.3825 -0.0310 0.9234
vn -0.0093 0.9997 -0.0225
vn 0.0093 0.9997 -0.0225
vn 0.3825 -0.0310 -0.9234
vn -0.9234 -0.0310 -0.3825
vn 0.9239 0.0000 -0.3827
vn 0.9234 -0.0310 0.3825
vn -0.0093 0.9997 0.0225
vn 0.0000 -1.0000 0.0000
vn 0.3813 -0.0850 -0.9205
vn 0.9205 -0.0850 -0.3813
vn 0.9205 -0.0850 0.3813
vn 0.3813 -0.0850 0.9205
vn -0.3813 -0.0850 0.9205
vn -0.9205 -0.0850 0.3813
vn -0.9205 -0.0850 -0.3813
vn -0.3813 -0.0850 -0.9205
vn -0.0225 0.9997 0.0093
vn 0.9234 -0.0310 -0.3825
vn 0.3825 -0.0310 0.9234
vn 0.0225 0.9997 -0.0093
vn -0.9234 -0.0310 0.3825
vn -0.3825 -0.0310 -0.9234
vn -0.0225 0.9997 -0.0093
vn 0.0225 0.9997 0.0093
vn 0.0000 1.0000 0.0000
vn -0.9239 0.0000 0.3827
vn -0.3827 0.0000 0.9239
vn 0.3827 0.0000 -0.9239
vn 0.3827 0.0000 0.9239
vn -0.3827 0.0000 -0.9239
vn 0.9239 0.0000 0.3827
vn -0.9239 0.0000 -0.3827
vn -0.0815 0.9958 0.0420
vn 0.1171 0.9862 -0.1171
vn -0.2144 0.9747 -0.0632
vn 0.0050 1.0000 -0.0012
vn 0.2851 0.9584 -0.0100
vn -0.3580 0.9318 0.0597
vn 0.0923 0.9858 0.1402
vn 0.3326 0.9245 -0.1863
vn 0.3584 0.9322 0.0499
vn 0.0363 0.9699 0.2408
vn -0.1163 0.9864 0.1163
vn -0.2735 0.9589 -0.0751
vn -0.1315 0.9879 0.0821
vn 0.1334 0.9892 0.0608
vn -0.0171 0.9704 0.2411
vn 0.2526 0.9631 -0.0927
vn 0.0682 0.9959 0.0590
vn 0.1001 0.9818 -0.1611
vn 0.0321 0.9568 0.2891
vn -0.2163 0.8961 -0.3877
vn -0.1679 0.9345 0.3138
vn 0.0985 0.9452 -0.3112
vn 0.0774 0.9540 0.2896
vn -0.1728 0.9768 -0.1268
vn -0.1552 0.9842 -0.0846
usemtl None
s off
f 8/1/1 10/2/1 26/3/1 24/4/1
f 3/5/2 1/6/2 17/7/2 18/8/2
f 16/9/3 2/10/3 20/11/3 32/12/3
f 2/13/4 4/14/4 19/15/4 20/16/4
f 11/17/5 9/18/5 25/19/5 27/20/5
f 7/21/6 5/22/6 21/23/6 23/24/6
f 14/25/7 12/26/7 38/27/7 39/28/7
f 15/29/8 13/30/8 29/31/8 31/32/8
f 10/33/9 12/26/9 28/34/9 26/35/9
f 1/36/10 3/37/10 5/38/10 7/39/10 9/40/10 11/41/10 13/42/10 15/43/10
f 17/44/11 20/45/11 19/15/11 18/8/11
f 18/46/12 19/47/12 22/48/12 21/49/12
f 21/50/13 22/51/13 24/52/13 23/24/13
f 23/53/14 24/54/14 26/3/14 25/55/14
f 25/56/15 26/57/15 28/34/15 27/20/15
f 27/58/16 28/59/16 30/60/16 29/61/16
f 29/62/17 30/63/17 32/64/17 31/32/17
f 31/65/18 32/66/18 20/11/18 17/67/18
f 12/68/19 14/69/19 30/60/19 28/70/19
f 13/71/20 11/72/20 27/73/20 29/61/20
f 1/74/21 15/75/21 31/76/21 17/67/21
f 4/77/22 6/78/22 22/48/22 19/79/22
f 5/80/23 3/81/23 18/82/23 21/49/23
f 9/83/24 7/84/24 23/85/24 25/55/24
f 14/25/25 16/86/25 32/64/25 30/87/25
f 6/88/26 8/89/26 24/52/26 22/90/26
f 33/91/27 34/92/27 40/93/27 39/94/27 38/95/27 37/96/27 36/97/27 35/98/27
f 6/88/28 4/14/28 33/99/28 35/100/28
f 4/77/29 2/10/29 34/101/29 33/102/29
f 12/68/30 10/2/30 37/103/30 38/104/30
f 2/13/31 16/86/31 40/105/31 34/106/31
f 10/33/32 8/89/32 36/107/32 37/108/32
f 16/9/33 14/69/33 39/109/33 40/110/33
f 8/1/34 6/78/34 35/111/34 36/112/34
f 76/113/35 60/114/35 44/115/35 49/116/35
f 53/117/36 64/118/36 52/119/36 43/120/36
f 64/118/37 68/121/37 51/122/37 52/119/37
f 68/121/38 72/123/38 50/124/38 51/122/38
f 72/123/39 76/113/39 49/116/39 50/124/39
f 47/125/40 48/126/40 73/127/40 69/128/40
f 69/128/41 73/127/41 74/129/41 70/130/41
f 70/130/42 74/129/42 75/131/42 71/132/42
f 71/132/43 75/131/43 76/113/43 72/123/43
f 46/133/44 47/125/44 69/128/44 65/134/44
f 65/134/45 69/128/45 70/130/45 66/135/45
f 66/135/46 70/130/46 71/132/46 67/136/46
f 67/136/47 71/132/47 72/123/47 68/121/47
f 45/137/48 46/133/48 65/134/48 61/138/48
f 61/138/49 65/134/49 66/135/49 62/139/49
f 62/139/50 66/135/50 67/136/50 63/140/50
f 63/140/51 67/136/51 68/121/51 64/118/51
f 41/141/52 45/137/52 61/138/52 56/142/52
f 56/142/53 61/138/53 62/139/53 55/143/53
f 55/143/54 62/139/54 63/140/54 54/144/54
f 54/144/55 63/140/55 64/118/55 53/117/55
f 48/126/56 42/145/56 57/146/56 73/127/56
f 73/127/57 57/146/57 58/147/57 74/129/57
f 74/129/58 58/147/58 59/148/58 75/131/58
f 75/131/59 59/148/59 60/114/59 76/113/59
