# Blender v2.79 (sub 0) OBJ File: 'Shield_0.blend'
# www.blender.org
mtllib Shield_0.mtl
o Cube
v -0.867612 -0.091746 0.000000
v -0.899230 -0.091746 -0.333333
v -0.903561 -0.091746 -0.666667
v 0.903561 -0.091746 -0.666667
v 0.899230 -0.091746 -0.333333
v 0.867612 -0.091746 -0.000000
v 0.794942 -0.091746 0.333333
v 0.590059 -0.091746 0.666667
v 0.970877 -0.091746 -0.879987
v -0.970877 -0.091746 -0.879987
v 0.000000 0.000000 0.959281
v 0.465332 0.000000 -0.666667
v -0.794942 -0.091746 0.333333
v -0.590059 -0.091746 0.666667
v -0.000000 0.000000 -0.666667
v -0.465332 0.000000 -0.666667
v 0.463102 0.000000 -0.333333
v 0.000000 0.000000 -0.333333
v -0.463102 0.000000 -0.333333
v 0.446818 0.000000 -0.000000
v -0.000000 0.000000 0.000000
v -0.446818 0.000000 0.000000
v 0.409394 0.000000 0.333333
v 0.000000 0.000000 0.333333
v -0.409394 0.000000 0.333333
v 0.303879 0.000000 0.666667
v 0.000000 0.000000 0.666667
v -0.303879 0.000000 0.666667
v 0.500000 0.000000 -0.879987
v 0.000000 0.000000 -1.000000
v -0.500000 0.000000 -0.879987
v -0.867612 -0.011288 0.000000
v -0.899230 -0.011288 -0.333333
v -0.903561 -0.011288 -0.666667
v 0.903561 -0.011288 -0.666667
v 0.899230 -0.011288 -0.333333
v 0.867612 -0.011288 -0.000000
v 0.794942 -0.011288 0.333333
v 0.590059 -0.011288 0.666667
v 0.970877 -0.011288 -0.879987
v -0.970877 -0.011288 -0.879987
v 0.000000 0.080458 0.959281
v 0.465332 0.080458 -0.666667
v -0.794942 -0.011288 0.333333
v -0.590059 -0.011288 0.666667
v -0.000000 0.080458 -0.666667
v -0.465332 0.080458 -0.666667
v 0.463102 0.080458 -0.333333
v 0.000000 0.080458 -0.333333
v -0.463102 0.080458 -0.333333
v 0.446818 0.080458 -0.000000
v -0.000000 0.080458 0.000000
v -0.446818 0.080458 0.000000
v 0.409394 0.080458 0.333333
v 0.000000 0.080458 0.333333
v -0.409394 0.080458 0.333333
v 0.303879 0.080458 0.666667
v 0.000000 0.080458 0.666667
v -0.303879 0.080458 0.666667
v 0.500000 0.080458 -0.879987
v 0.000000 0.080458 -1.000000
v -0.500000 0.080458 -0.879987
v -0.893637 -0.051517 0.000000
v -0.926204 -0.051517 -0.333333
v -0.818788 -0.051517 0.333333
v -1.000000 -0.051517 -0.879987
v -0.500000 0.040229 -0.879987
v 0.000000 0.040229 -1.000000
v 1.000000 -0.051517 -0.879987
v 0.930665 -0.051517 -0.666667
v 0.926204 -0.051517 -0.333333
v 0.893637 -0.051517 -0.000000
v 0.000000 0.040229 1.000000
v -0.607759 -0.051517 0.666667
v 0.500000 0.040229 -0.879987
v -0.930665 -0.051517 -0.666667
v 0.818788 -0.051517 0.333333
v 0.607759 -0.051517 0.666667
vt 0.204082 0.318490
vt 0.308703 0.372249
vt 0.240723 0.499607
vt 0.159905 0.411751
vt 0.102844 0.266470
vt 0.298328 0.000096
vt 0.254183 0.228273
vt 0.000096 0.580496
vt 0.583393 0.030053
vt 0.707122 0.071475
vt 0.602951 0.326235
vt 0.487401 0.279967
vt 0.453453 0.000096
vt 0.372667 0.242827
vt 0.442616 0.638269
vt 0.553860 0.702670
vt 0.404961 0.940647
vt 0.296144 0.871292
vt 0.621067 0.754141
vt 0.469017 0.999904
vt 0.337721 0.571264
vt 0.190428 0.794816
vt 0.090415 0.706616
vt 0.526018 0.483914
vt 0.415634 0.427194
vt 0.826866 0.119565
vt 0.912339 0.137141
vt 0.801059 0.403853
vt 0.720081 0.379181
vt 0.755692 0.601930
vt 0.639860 0.542410
vt 0.541233 0.277075
vt 0.590251 0.281357
vt 0.612685 0.341766
vt 0.531814 0.335667
vt 0.548054 0.235243
vt 0.721329 0.217260
vt 0.493250 0.265474
vt 0.388008 0.160922
vt 0.241243 0.318914
vt 0.424430 0.383552
vt 0.405595 0.458957
vt 0.207630 0.420030
vt 0.452685 0.316143
vt 0.298777 0.230852
vt 0.614640 0.491069
vt 0.807460 0.511218
vt 0.783527 0.607741
vt 0.600890 0.568501
vt 0.766044 0.664922
vt 0.595600 0.616868
vt 0.781444 0.309981
vt 0.807063 0.408621
vt 0.618943 0.413980
vt 0.521218 0.403545
vt 0.510190 0.476173
vt 0.200913 0.523351
vt 0.396583 0.537146
vt 0.387870 0.584957
vt 0.201635 0.586089
vt 0.499293 0.549533
vt 0.488382 0.625754
vt 0.117886 0.403215
vt 0.160121 0.280123
vt 0.233981 0.174411
vt 0.348159 0.635315
vt 0.132512 0.616418
vt 0.480090 0.691094
vt 0.861815 0.640720
vt 0.820359 0.709988
vt 0.892793 0.398045
vt 0.893748 0.522376
vt 0.348061 0.087125
vt 0.555309 0.192269
vt 0.618474 0.671825
vt 0.111772 0.532636
vt 0.858530 0.278600
vt 0.781847 0.161927
vt 0.842739 0.093524
vt 0.948358 0.230485
vt 0.565269 0.134659
vt 0.034028 0.658507
vt 0.000088 0.549027
vt 0.896808 0.774594
vt 0.653040 0.733582
vt 0.999912 0.536073
vt 0.957116 0.686786
vt 0.997206 0.379970
vt 0.006720 0.381757
vt 0.468960 0.774594
vt 0.162569 0.096642
vt 0.312511 0.000088
vt 0.293785 0.689862
vt 0.062838 0.226823
vn 0.0000 -1.0000 0.0000
vn 0.0000 -0.9872 -0.1594
vn 0.2094 -0.9777 -0.0150
vn 0.2615 -0.9575 -0.1218
vn -0.2054 -0.9787 -0.0020
vn -0.1976 -0.9791 -0.0472
vn -0.2217 -0.9744 -0.0366
vn -0.2094 -0.9777 -0.0150
vn -0.2615 -0.9575 -0.1218
vn 0.2217 -0.9744 -0.0366
vn 0.1976 -0.9791 -0.0472
vn 0.2054 -0.9787 -0.0020
vn 0.0000 1.0000 0.0000
vn 0.0000 0.9872 0.1594
vn -0.2094 0.9777 0.0150
vn -0.2615 0.9575 0.1218
vn 0.2054 0.9787 0.0020
vn 0.1976 0.9791 0.0472
vn 0.2217 0.9744 0.0366
vn 0.2094 0.9777 0.0150
vn 0.2615 0.9575 0.1218
vn -0.2217 0.9744 0.0366
vn -0.1976 0.9791 0.0472
vn -0.2054 0.9787 0.0020
vn -0.8324 0.5483 0.0801
vn -0.8353 0.5178 0.1848
vn 0.0000 0.0000 -1.0000
vn -0.2334 0.0000 -0.9724
vn 0.7928 0.5540 0.2539
vn 0.8324 0.5483 0.0801
vn -0.4630 0.4792 0.7456
vn -0.7771 0.4013 0.4848
vn 0.2334 0.0000 -0.9724
vn -0.8299 0.5578 0.0109
vn 0.8353 0.5178 0.1848
vn 0.8299 0.5578 0.0109
vn -0.7928 0.5540 0.2539
vn 0.4630 0.4792 0.7456
vn 0.7771 0.4013 0.4848
vn 0.7771 -0.4013 0.4848
vn 0.3462 -0.4831 0.8042
vn -0.7928 -0.5540 0.2539
vn 0.8299 -0.5578 0.0109
vn 0.8353 -0.5178 0.1848
vn -0.8299 -0.5578 0.0109
vn -0.7771 -0.4013 0.4848
vn -0.3462 -0.4831 0.8042
vn 0.8324 -0.5483 0.0801
vn 0.7928 -0.5540 0.2539
vn -0.8353 -0.5178 0.1848
vn -0.8324 -0.5483 0.0801
usemtl Material
s off
f 27/1/1 24/2/1 23/3/1 26/4/1
f 11/5/2 14/6/2 28/7/2 27/1/2 26/4/2 8/8/2
f 1/9/3 2/10/3 19/11/3 22/12/3
f 14/6/4 13/13/4 25/14/4 28/7/4
f 17/15/5 12/16/5 4/17/5 5/18/5
f 28/7/1 25/14/1 24/2/1 27/1/1
f 12/16/6 29/19/6 9/20/6 4/17/6
f 23/3/7 20/21/7 6/22/7 7/23/7
f 20/21/8 17/15/8 5/18/8 6/22/8
f 26/4/9 23/3/9 7/23/9 8/8/9
f 22/12/1 19/11/1 18/24/1 21/25/1
f 21/25/1 18/24/1 17/15/1 20/21/1
f 13/13/10 1/9/10 22/12/10 25/14/10
f 25/14/1 22/12/1 21/25/1 24/2/1
f 24/2/1 21/25/1 20/21/1 23/3/1
f 3/26/11 10/27/11 31/28/11 16/29/11
f 16/29/1 31/28/1 30/30/1 15/31/1
f 15/31/1 30/30/1 29/19/1 12/16/1
f 2/10/12 3/26/12 16/29/12 19/11/12
f 19/11/1 16/29/1 15/31/1 18/24/1
f 18/24/1 15/31/1 12/16/1 17/15/1
f 58/32/13 57/33/13 54/34/13 55/35/13
f 42/36/14 39/37/14 57/33/14 58/32/14 59/38/14 45/39/14
f 32/40/15 53/41/15 50/42/15 33/43/15
f 45/39/16 59/38/16 56/44/16 44/45/16
f 48/46/17 36/47/17 35/48/17 43/49/17
f 59/38/13 58/32/13 55/35/13 56/44/13
f 43/49/18 35/48/18 40/50/18 60/51/18
f 54/34/19 38/52/19 37/53/19 51/54/19
f 51/54/20 37/53/20 36/47/20 48/46/20
f 57/33/21 39/37/21 38/52/21 54/34/21
f 53/41/13 52/55/13 49/56/13 50/42/13
f 52/55/13 51/54/13 48/46/13 49/56/13
f 44/45/22 56/44/22 53/41/22 32/40/22
f 56/44/13 55/35/13 52/55/13 53/41/13
f 55/35/13 54/34/13 51/54/13 52/55/13
f 34/57/23 47/58/23 62/59/23 41/60/23
f 47/58/13 46/61/13 61/62/13 62/59/13
f 46/61/13 43/49/13 60/51/13 61/62/13
f 33/43/24 50/42/24 47/58/24 34/57/24
f 50/42/13 49/56/13 46/61/13 47/58/13
f 49/56/13 48/46/13 43/49/13 46/61/13
f 64/63/25 63/64/25 32/40/25 33/43/25
f 63/64/26 65/65/26 44/45/26 32/40/26
f 67/66/27 66/67/27 41/60/27 62/59/27
f 68/68/28 67/66/28 62/59/28 61/62/28
f 70/69/29 69/70/29 40/50/29 35/48/29
f 72/71/30 71/72/30 36/47/30 37/53/30
f 74/73/31 73/74/31 42/36/31 45/39/31
f 65/65/32 74/73/32 45/39/32 44/45/32
f 75/75/33 68/68/33 61/62/33 60/51/33
f 76/76/34 64/63/34 33/43/34 34/57/34
f 77/77/35 72/71/35 37/53/35 38/52/35
f 71/72/36 70/69/36 35/48/36 36/47/36
f 69/70/27 75/75/27 60/51/27 40/50/27
f 66/67/37 76/76/37 34/57/37 41/60/37
f 73/74/38 78/78/38 39/37/38 42/36/38
f 78/78/39 77/77/39 38/52/39 39/37/39
f 8/79/40 7/80/40 77/77/40 78/78/40
f 11/81/41 8/79/41 78/78/41 73/74/41
f 10/82/42 3/83/42 76/76/42 66/67/42
f 9/84/27 29/85/27 75/75/27 69/70/27
f 5/86/43 4/87/43 70/69/43 71/72/43
f 7/80/44 6/88/44 72/71/44 77/77/44
f 3/83/45 2/89/45 64/63/45 76/76/45
f 29/85/33 30/90/33 68/68/33 75/75/33
f 13/91/46 14/92/46 74/73/46 65/65/46
f 14/92/47 11/81/47 73/74/47 74/73/47
f 6/88/48 5/86/48 71/72/48 72/71/48
f 4/87/49 9/84/49 69/70/49 70/69/49
f 30/90/28 31/93/28 67/66/28 68/68/28
f 31/93/27 10/82/27 66/67/27 67/66/27
f 1/94/50 13/91/50 65/65/50 63/64/50
f 2/89/51 1/94/51 63/64/51 64/63/51
