# Blender v2.76 (sub 0) OBJ File: 'bag.blend'
# www.blender.org
mtllib bag.mtl
o Cube_Cube.001
v -1.000000 -3.481289 1.000000
v -0.826380 0.790045 0.826380
v -1.000000 -3.481289 -1.000000
v -0.826380 0.790045 -0.826380
v 1.000000 -3.481289 1.000000
v 0.826380 0.790045 0.826380
v 1.000000 -3.481289 -1.000000
v 0.826380 0.790045 -0.826380
v -1.984215 -1.469687 1.984215
v -1.984215 -1.469687 -1.984215
v 1.984215 -1.469687 -1.984215
v 1.984215 -1.469687 1.984215
v -0.275460 0.790045 -0.826380
v 0.275460 0.790045 -0.826380
v 0.333333 -3.481289 -1.000000
v -0.333333 -3.481289 -1.000000
v 0.275460 0.790045 0.826380
v -0.275460 0.790045 0.826380
v -0.333333 -3.481289 1.000000
v 0.333333 -3.481289 1.000000
v -0.661405 -1.469687 1.984215
v 0.661405 -1.469687 1.984215
v 0.661405 -1.469687 -1.984215
v -0.661405 -1.469687 -1.984215
v -1.757560 -0.339821 1.757560
v -1.757560 -0.339821 -1.757560
v 1.757560 -0.339821 -1.757560
v 1.757560 -0.339821 1.757560
v -0.585853 -0.339821 -1.757560
v 0.585853 -0.339821 -1.757560
v 0.585853 -0.339821 1.757560
v -0.585853 -0.339821 1.757560
v -1.832532 -2.475488 -1.832532
v 1.832532 -2.475488 -1.832532
v 1.832532 -2.475488 1.832532
v -1.832532 -2.475488 1.832532
v 0.610844 -2.475488 1.832532
v -0.610844 -2.475488 1.832532
v -0.610844 -2.475488 -1.832532
v 0.610844 -2.475488 -1.832532
v -0.482720 0.962356 0.560169
v -0.482720 0.962356 -0.560169
v 0.160917 0.962356 -0.560169
v 0.482735 0.962356 -0.560169
v 0.482735 0.962356 0.560169
v -0.160902 0.962356 0.560169
v -0.160902 0.962356 -0.560169
v 0.160917 0.962356 0.560169
v -0.402976 1.572075 0.389721
v -0.402976 1.572075 -0.389721
v 0.116652 1.572075 -0.389721
v 0.376467 1.572075 -0.389721
v 0.376467 1.572075 0.389721
v -0.143162 1.572075 0.389721
v -0.143162 1.572075 -0.389721
v 0.116652 1.572075 0.389721
v -0.443962 2.619200 0.430689
v -0.443962 2.619200 -0.430689
v 0.130290 2.619200 -0.430689
v 0.417416 2.619200 -0.430689
v 0.417416 2.619200 0.430689
v -0.156836 2.619200 0.430689
v -0.156836 2.619200 -0.430689
v 0.130290 2.619200 0.430689
v -0.781720 3.175900 0.768460
v -0.781720 3.175900 -0.768460
v 0.242893 3.175900 -0.768460
v 0.755200 3.175900 -0.768460
v 0.755200 3.175900 0.768460
v -0.269414 3.175900 0.768460
v -0.269414 3.175900 -0.768460
v 0.242893 3.175900 0.768460
v -0.872755 0.790045 0.000000
v -1.056175 -3.481289 0.000000
v 0.873299 0.790045 0.000000
v 1.056719 -3.481289 0.000000
v 2.096489 -1.469687 0.000000
v -2.095945 -1.469687 0.000000
v -0.351877 -3.481289 0.000000
v 0.352421 -3.481289 0.000000
v -1.856496 -0.339821 0.000000
v 1.857040 -0.339821 0.000000
v 1.936245 -2.475488 0.000000
v -1.935701 -2.475488 0.000000
v -0.509734 0.962356 0.000000
v 0.510218 0.962356 0.000000
v -0.425451 1.572075 0.000000
v 0.397989 1.572075 0.000000
v -0.468657 2.619200 0.000000
v 0.441342 2.619200 0.000000
v -0.825546 3.175900 0.000000
v 0.798128 3.175900 0.000000
v 0.273622 3.175900 0.000000
v -0.301083 3.175900 0.000000
vt 0.824492 0.349109
vt 0.703748 0.344438
vt 0.720378 0.211335
vt 0.832882 0.217421
vt 0.556893 0.309326
vt 0.493014 0.324838
vt 0.495799 0.196490
vt 0.571759 0.185984
vt 0.398781 0.316670
vt 0.304304 0.349040
vt 0.277987 0.222159
vt 0.385396 0.199952
vt 0.123048 0.364408
vt 0.000117 0.396686
vt 0.063058 0.236455
vt 0.135164 0.228547
vt 0.201344 0.115089
vt 0.191805 0.005020
vt 0.265726 0.000117
vt 0.279006 0.110796
vt 0.499749 0.515128
vt 0.535605 0.537096
vt 0.536374 0.567806
vt 0.504892 0.555134
vt 0.200954 0.546984
vt 0.100313 0.612185
vt 0.021880 0.507750
vt 0.144557 0.456888
vt 0.417436 0.437144
vt 0.331363 0.446690
vt 0.315928 0.396488
vt 0.406454 0.375365
vt 0.549888 0.431550
vt 0.496246 0.414869
vt 0.494603 0.368586
vt 0.555511 0.369118
vt 0.762531 0.511240
vt 0.674461 0.445110
vt 0.691367 0.393812
vt 0.807042 0.430611
vt 0.613812 0.442176
vt 0.626957 0.378256
vt 0.278955 0.491261
vt 0.243785 0.419017
vt 0.580775 0.546149
vt 0.625760 0.543081
vt 0.601042 0.576860
vt 0.567113 0.575531
vt 0.354951 0.588501
vt 0.376069 0.546699
vt 0.393388 0.585011
vt 0.375530 0.615498
vt 0.046963 0.126921
vt 0.044492 0.016022
vt 0.118103 0.010372
vt 0.124181 0.120476
vt 0.227249 0.345986
vt 0.204974 0.222302
vt 0.638332 0.315688
vt 0.645490 0.185258
vt 0.322332 0.631511
vt 0.666968 0.601989
vt 0.441268 0.539604
vt 0.282016 0.673330
vt 0.303776 0.710573
vt 0.326721 0.716428
vt 0.315165 0.766520
vt 0.292525 0.761696
vt 0.384663 0.734154
vt 0.423462 0.745512
vt 0.399474 0.784760
vt 0.370766 0.778557
vt 0.349162 0.719467
vt 0.337865 0.770704
vt 0.355734 0.643345
vt 0.720134 0.667894
vt 0.670102 0.673330
vt 0.634508 0.625344
vt 0.332831 0.669911
vt 0.450679 0.574970
vt 0.298978 0.860791
vt 0.273408 0.856133
vt 0.395126 0.861682
vt 0.362118 0.863716
vt 0.324401 0.866012
vt 0.282760 0.702601
vt 0.269217 0.755526
vt 0.188019 0.683025
vt 0.210462 0.685124
vt 0.199372 0.737638
vt 0.176763 0.732331
vt 0.245603 0.698840
vt 0.233726 0.747270
vt 0.164538 0.678726
vt 0.156021 0.726809
vt 0.140922 0.673565
vt 0.136621 0.721302
vt 0.296450 0.913356
vt 0.262480 0.908645
vt 0.423462 0.904200
vt 0.370368 0.911654
vt 0.325228 0.925371
vt 0.246712 0.853816
vt 0.168442 0.830543
vt 0.146162 0.817379
vt 0.207400 0.842151
vt 0.124744 0.805824
vt 0.104906 0.795839
vt 0.057522 0.885396
vt 0.028630 0.929341
vt 0.000117 0.909117
vt 0.027895 0.864611
vt 0.117860 0.929866
vt 0.084855 0.970033
vt 0.056904 0.949681
vt 0.089483 0.908569
vt 0.232314 0.913086
vt 0.146536 0.887340
vt 0.120843 0.864652
vt 0.192675 0.890977
vt 0.090826 0.842854
vt 0.060444 0.822616
vt 0.977054 0.500423
vt 0.999883 0.393133
vt 0.902225 0.602415
vt 0.942204 0.228676
vn -0.752100 -0.657600 -0.042300
vn -0.000000 -0.637600 -0.770300
vn 0.752100 -0.657700 0.042600
vn 0.000000 -0.637600 0.770300
vn 0.000000 -1.000000 0.000000
vn 0.000000 0.839500 -0.543400
vn -0.000000 0.196700 0.980500
vn 0.976800 0.207000 0.055300
vn 0.000000 0.196700 -0.980500
vn -0.976800 0.207000 -0.055000
vn -0.000000 0.839500 0.543400
vn 0.000000 0.636000 0.771700
vn -0.000000 0.636000 -0.771700
vn -0.753500 0.656000 -0.042400
vn 0.753500 0.656100 0.042700
vn 0.000000 -0.149100 -0.988800
vn -0.000000 -0.149100 0.988800
vn 0.986000 -0.157100 0.055800
vn -0.986000 -0.157100 -0.055500
vn 0.000000 0.269200 -0.963100
vn -0.988800 0.140200 0.051500
vn -0.431200 0.901900 0.022800
vn 0.431100 0.902000 -0.023100
vn 0.000000 -0.039100 -0.999200
vn -0.997500 -0.041200 0.057400
vn 0.000000 0.269200 0.963100
vn 0.981800 0.183000 -0.050700
vn -0.000000 -0.518700 -0.854900
vn -0.840800 -0.539200 0.048000
vn 0.000000 -0.039100 0.999200
vn 0.997600 -0.041200 -0.055300
vn 0.000000 1.000000 0.000000
vn 0.000000 -0.518700 0.854900
vn 0.841100 -0.538900 -0.046900
vn 0.841100 -0.538900 0.046900
vn 0.997600 -0.041200 0.055300
vn -0.840800 -0.539200 -0.048000
vn 0.981800 0.183000 0.050700
vn -0.997500 -0.041200 -0.057400
vn 0.431100 0.902000 0.023100
vn -0.431200 0.901900 -0.022800
vn -0.988800 0.140200 -0.051500
vn -0.986000 -0.157100 0.055500
vn 0.986000 -0.157100 -0.055800
vn 0.753500 0.656100 -0.042700
vn -0.753500 0.656000 0.042400
vn -0.976800 0.207000 0.055000
vn 0.976800 0.207000 -0.055300
vn 0.752100 -0.657700 -0.042600
vn -0.752100 -0.657600 0.042300
usemtl Material.001
s off
f 84/1/1 33/2/1 3/3/1 74/4/1
f 40/5/2 34/6/2 7/7/2 15/8/2
f 83/9/3 35/10/3 5/11/3 76/12/3
f 38/13/4 36/14/4 1/15/4 19/16/4
f 80/17/5 15/18/5 7/19/5 76/20/5
f 8/21/6 14/22/6 43/23/6 44/24/6
f 32/25/7 25/26/7 9/27/7 21/28/7
f 82/29/8 28/30/8 12/31/8 77/32/8
f 30/33/9 27/34/9 11/35/9 23/36/9
f 81/37/10 26/38/10 10/39/10 78/40/10
f 26/38/9 29/41/9 24/42/9 10/39/9
f 29/41/9 30/33/9 23/36/9 24/42/9
f 28/30/7 31/43/7 22/44/7 12/31/7
f 31/43/7 32/25/7 21/28/7 22/44/7
f 13/45/6 4/46/6 42/47/6 47/48/6
f 17/49/11 6/50/11 45/51/11 48/52/11
f 74/53/5 3/54/5 16/55/5 79/56/5
f 79/56/5 16/55/5 15/18/5 80/17/5
f 35/10/4 37/57/4 20/58/4 5/11/4
f 37/57/4 38/13/4 19/16/4 20/58/4
f 33/2/2 39/59/2 16/60/2 3/3/2
f 39/59/2 40/5/2 15/8/2 16/60/2
f 17/49/12 18/61/12 32/25/12 31/43/12
f 6/50/12 17/49/12 31/43/12 28/30/12
f 13/45/13 14/22/13 30/33/13 29/41/13
f 4/46/13 13/45/13 29/41/13 26/38/13
f 73/62/14 4/46/14 26/38/14 81/37/14
f 14/22/13 8/21/13 27/34/13 30/33/13
f 75/63/15 6/50/15 28/30/15 82/29/15
f 18/61/12 2/64/12 25/26/12 32/25/12
f 24/42/16 23/36/16 40/5/16 39/59/16
f 10/39/16 24/42/16 39/59/16 33/2/16
f 22/44/17 21/28/17 38/13/17 37/57/17
f 12/31/17 22/44/17 37/57/17 35/10/17
f 21/28/17 9/27/17 36/14/17 38/13/17
f 77/32/18 12/31/18 35/10/18 83/9/18
f 23/36/16 11/35/16 34/6/16 40/5/16
f 78/40/19 10/39/19 33/2/19 84/1/19
f 43/65/20 47/66/20 55/67/20 51/68/20
f 85/69/21 41/70/21 49/71/21 87/72/21
f 47/66/20 42/73/20 50/74/20 55/67/20
f 18/61/11 17/49/11 48/52/11 46/75/11
f 14/22/6 13/45/6 47/48/6 43/23/6
f 73/62/22 2/76/22 41/77/22 85/78/22
f 2/64/11 18/61/11 46/75/11 41/79/11
f 75/63/23 8/21/23 44/24/23 86/80/23
f 51/68/24 55/67/24 63/81/24 59/82/24
f 87/72/25 49/71/25 57/83/25 89/84/25
f 55/67/24 50/74/24 58/85/24 63/81/24
f 44/86/20 43/65/20 51/68/20 52/87/20
f 48/88/26 45/89/26 53/90/26 56/91/26
f 86/92/27 44/86/27 52/87/27 88/93/27
f 46/94/26 48/88/26 56/91/26 54/95/26
f 41/96/26 46/94/26 54/95/26 49/97/26
f 59/82/28 63/81/28 71/98/28 67/99/28
f 89/84/29 57/83/29 65/100/29 91/101/29
f 63/81/28 58/85/28 66/102/28 71/98/28
f 52/87/24 51/68/24 59/82/24 60/103/24
f 56/91/30 53/90/30 61/104/30 64/105/30
f 88/93/31 52/87/31 60/103/31 90/106/31
f 54/95/30 56/91/30 64/105/30 62/107/30
f 49/97/30 54/95/30 62/107/30 57/108/30
f 94/109/32 71/110/32 66/111/32 91/112/32
f 92/113/32 68/114/32 67/115/32 93/116/32
f 93/116/32 67/115/32 71/110/32 94/109/32
f 60/103/28 59/82/28 67/99/28 68/117/28
f 64/105/33 61/104/33 69/118/33 72/119/33
f 90/106/34 60/103/34 68/117/34 92/120/34
f 62/107/33 64/105/33 72/119/33 70/121/33
f 57/108/33 62/107/33 70/121/33 65/122/33
f 61/104/35 90/106/35 92/120/35 69/118/35
f 72/119/32 93/116/32 94/109/32 70/121/32
f 69/118/32 92/113/32 93/116/32 72/119/32
f 70/121/32 94/109/32 91/112/32 65/122/32
f 53/90/36 88/93/36 90/106/36 61/104/36
f 58/85/37 89/84/37 91/101/37 66/102/37
f 45/89/38 86/92/38 88/93/38 53/90/38
f 50/74/39 87/72/39 89/84/39 58/85/39
f 6/50/40 75/63/40 86/80/40 45/51/40
f 4/46/41 73/62/41 85/78/41 42/47/41
f 42/73/42 85/69/42 87/72/42 50/74/42
f 9/123/43 78/40/43 84/1/43 36/124/43
f 11/35/44 77/32/44 83/9/44 34/6/44
f 8/21/45 75/63/45 82/29/45 27/34/45
f 2/76/46 73/62/46 81/37/46 25/125/46
f 19/16/5 79/56/5 80/17/5 20/58/5
f 1/15/5 74/53/5 79/56/5 19/16/5
f 25/125/47 81/37/47 78/40/47 9/123/47
f 27/34/48 82/29/48 77/32/48 11/35/48
f 20/58/5 80/17/5 76/20/5 5/11/5
f 34/6/49 83/9/49 76/12/49 7/7/49
f 36/124/50 84/1/50 74/4/50 1/126/50
