# Blender v2.79 (sub 0) OBJ File: 'Anvil.blend'
# www.blender.org
mtllib Anvil.mtl
o Cube
v 1.000000 -0.300990 -1.000000
v 1.000000 -0.300990 1.000000
v -1.000000 -0.300990 1.000000
v -1.000000 -0.300990 -1.000000
v 1.000000 1.000000 -0.999999
v 0.999999 1.000000 1.000001
v -1.000000 1.000000 1.000000
v -1.000000 1.000000 -1.000000
v 1.036577 -0.478268 -1.036577
v 1.036577 -0.478268 1.036577
v -1.036577 -0.478268 -1.036578
v -1.036577 -0.478268 1.036577
v 1.129614 -0.723615 -1.129614
v 1.129614 -0.723615 1.129614
v -1.129614 -0.723615 -1.129614
v -1.129614 -0.723615 1.129614
v 1.207625 -0.923758 -1.207625
v 1.207625 -0.923758 1.207625
v -1.207625 -0.923758 -1.207626
v -1.207626 -0.923758 1.207625
v 1.337925 -1.118742 -1.337925
v 1.337925 -1.118742 1.337925
v -1.337924 -1.118742 -1.337925
v -1.337925 -1.118742 1.337924
v 1.337925 -1.352821 -1.337925
v 1.337925 -1.352821 1.337925
v -1.337924 -1.352821 -1.337925
v -1.337925 -1.352821 1.337924
v 1.122898 1.110180 -1.122897
v 1.122896 1.110180 1.122898
v -1.122897 1.110180 -1.122897
v -1.122898 1.110180 1.122897
v 1.122898 1.644610 -1.122897
v 1.122896 1.644610 1.122898
v -1.122897 1.644610 -1.122897
v -1.122898 1.644610 1.122897
v 1.122898 1.644610 -1.608247
v 1.122896 1.644610 1.608248
v -1.122897 1.644610 -1.608248
v -1.122897 1.644610 1.608247
v 1.122898 2.261832 -1.608247
v 1.122896 2.261832 1.608248
v -1.122897 2.261832 -1.608248
v -1.122897 2.261832 1.608247
v 0.476966 -0.300990 -1.000000
v 0.476966 -0.300990 1.000000
v 0.476966 1.000000 -1.000000
v 0.476965 1.000000 1.000000
v 0.494412 -0.478268 -1.036577
v 0.494411 -0.478268 1.036577
v 0.538787 -0.723615 -1.129614
v 0.538787 -0.723615 1.129614
v 0.575996 -0.923758 -1.207625
v 0.575996 -0.923758 1.207625
v 0.638144 -1.118742 -1.337925
v 0.638144 -1.118742 1.337925
v 0.638144 -1.352821 -1.337925
v 0.638144 -1.352821 1.337925
v 0.535584 1.110180 -1.122897
v 0.535583 1.110180 1.122898
v 0.535584 1.644610 -1.122897
v 0.535583 1.644610 1.122898
v 0.535584 1.644610 -1.768422
v 0.535583 1.644610 1.608248
v 0.535584 2.261832 -1.768422
v 0.535583 2.261832 1.608248
v -0.380461 -0.300990 -1.000000
v -0.380461 -0.300990 1.000000
v -0.380461 1.000000 -1.000000
v -0.380462 1.000000 1.000000
v -0.394377 -0.478268 -1.036577
v -0.394377 -0.478268 1.036577
v -0.429774 -0.723615 -1.129614
v -0.429774 -0.723615 1.129614
v -0.459454 -0.923758 -1.207626
v -0.459455 -0.923758 1.207625
v -0.509028 -1.118742 -1.337925
v -0.509028 -1.118742 1.337924
v -0.509028 -1.352821 -1.337925
v -0.509028 -1.352821 1.337924
v -0.427218 1.110180 -1.122897
v -0.427219 1.110180 1.122897
v -0.427218 1.644610 -1.122897
v -0.427219 1.644610 1.122897
v -0.427218 1.644610 -1.768422
v -0.427219 1.644610 1.608247
v -0.427218 2.261832 -1.768422
v -0.427219 2.261832 1.608247
v 0.535584 1.644610 -2.077187
v 0.535584 2.261832 -2.077187
v -0.427218 1.644610 -2.077187
v -0.427218 2.261832 -2.077187
v -0.010157 2.225546 2.848647
v -0.010157 2.143055 2.848647
v 0.118520 2.225546 2.848647
v 0.118520 2.143055 2.848647
v -0.366787 1.844736 1.918347
v -0.351347 1.857182 2.228447
v -0.241990 1.993251 2.538547
v 0.350352 1.993251 2.538548
v 0.459709 1.857182 2.228448
v 0.475151 1.844736 1.918348
v 0.350352 2.248111 2.538548
v 0.459709 2.252252 2.228448
v 0.475151 2.259604 1.918348
v -0.366787 2.259604 1.918347
v -0.351347 2.252252 2.228447
v -0.241990 2.248111 2.538547
vt 0.160944 0.609922
vt 0.134187 0.656837
vt 0.118042 0.650123
vt 0.144781 0.604192
vt 0.321052 0.575331
vt 0.373170 0.507444
vt 0.391405 0.516633
vt 0.338843 0.580580
vt 0.258852 0.710886
vt 0.157459 0.852196
vt 0.095401 0.821222
vt 0.274773 0.201363
vt 0.397067 0.205277
vt 0.416394 0.274422
vt 0.252882 0.262634
vt 0.201465 0.462991
vt 0.189815 0.529721
vt 0.095018 0.641173
vt 0.122261 0.597535
vt 0.182565 0.458556
vt 0.234788 0.256566
vt 0.259555 0.197989
vt 0.081273 0.820975
vt 0.077692 0.634690
vt 0.104746 0.592212
vt 0.209850 0.247787
vt 0.238263 0.193252
vt 0.155878 0.452027
vt 0.059752 0.823941
vt 0.060477 0.628116
vt 0.086420 0.588318
vt 0.191477 0.240987
vt 0.221633 0.188626
vt 0.136733 0.447758
vt 0.042743 0.826614
vt 0.044719 0.622495
vt 0.069842 0.580189
vt 0.173929 0.233925
vt 0.204298 0.184567
vt 0.115571 0.443693
vt 0.019081 0.833983
vt 0.017575 0.120784
vt 0.192417 0.175075
vt 0.175600 0.229235
vt 0.000758 0.174945
vt 0.156187 0.227375
vt 0.187853 0.176290
vt 0.097906 0.441154
vt 0.000915 0.830151
vt 0.470220 0.542782
vt 0.390087 0.618426
vt 0.380641 0.135293
vt 0.374850 0.100866
vt 0.383039 0.091412
vt 0.391521 0.128483
vt 0.439660 0.273000
vt 0.272666 0.718341
vt 0.161596 0.865817
vt 0.463156 0.616831
vt 0.435176 0.672048
vt 0.412836 0.081658
vt 0.425948 0.116591
vt 0.504428 0.264417
vt 0.307816 0.738025
vt 0.206014 0.895765
vt 0.533416 0.625519
vt 0.499661 0.697602
vt 0.439796 0.070258
vt 0.453590 0.102882
vt 0.000000 0.000000
vt 0.000000 0.000000
vt 0.000000 0.000000
vt 0.000000 0.000000
vt 0.000000 0.000000
vt 0.000000 0.000000
vt 0.000000 0.000000
vt 0.000000 0.000000
vt 0.972305 0.138623
vt 0.957992 0.200789
vt 0.670563 0.200789
vt 0.670563 0.138623
vt 0.075901 0.883353
vt 0.116119 0.864349
vt 0.136090 0.906615
vt 0.095872 0.925619
vt 0.512786 0.209996
vt 0.559430 0.207639
vt 0.336378 0.760275
vt 0.356349 0.802541
vt 0.556883 0.097936
vt 0.539858 0.097715
vt 0.547628 0.074665
vt 0.552489 0.073156
vt 0.957992 0.000103
vt 0.972305 0.052586
vt 0.670563 0.052586
vt 0.670563 0.000103
vt 0.456954 0.188564
vt 0.497236 0.165341
vt 0.378948 0.733866
vt 0.397325 0.785068
vt 0.412145 0.205319
vt 0.333667 0.696660
vt 0.288467 0.670993
vt 0.245223 0.059132
vt 0.231300 0.105284
vt 0.215692 0.100118
vt 0.229890 0.054394
vt 0.055048 0.000103
vt 0.040850 0.045827
vt 0.257954 0.072383
vt 0.245856 0.114473
vt 0.115132 0.503568
vt 0.097407 0.500634
vt 0.270482 0.081650
vt 0.259910 0.121349
vt 0.132720 0.510518
vt 0.285734 0.092355
vt 0.277558 0.129164
vt 0.150490 0.516362
vt 0.296929 0.097426
vt 0.290357 0.133209
vt 0.173116 0.524345
vt 0.276375 0.659607
vt 0.549176 0.164157
vt 0.402173 0.736136
vt 0.419925 0.778841
vt 0.442174 0.704293
vt 0.483469 0.727981
vt 0.999897 0.052586
vt 0.999897 0.138623
vt 0.021769 0.938135
vt 0.030016 0.955587
vt 0.002772 0.966570
vt 0.000103 0.960921
vt 0.549173 0.065558
vt 0.544302 0.067684
vt 0.587420 0.069138
vt 0.587420 0.122071
vt 0.559636 0.101354
vt 0.559636 0.089855
vt 0.516291 0.066948
vt 0.474654 0.090660
vt 0.518085 0.138347
vt 0.492748 0.076002
vt 0.528536 0.117279
vt 0.642852 0.133223
vt 0.642852 0.057986
vt 0.615133 0.131843
vt 0.615133 0.059366
vt 0.074166 0.935689
vt 0.060742 0.907279
vt 0.052666 0.945231
vt 0.039883 0.918178
vt 0.550745 0.143792
vt 0.555057 0.121405
vn 0.0000 0.2021 -0.9794
vn 0.0000 -0.7446 -0.6675
vn 1.0000 0.0000 0.0000
vn -0.0000 0.0000 1.0000
vn -1.0000 -0.0000 -0.0000
vn 0.0000 0.0000 -1.0000
vn 0.0000 0.3546 -0.9350
vn -0.9794 0.2021 -0.0000
vn 0.0000 0.2021 0.9794
vn 0.9794 0.2021 0.0000
vn 0.0000 0.3632 -0.9317
vn 0.0000 0.3546 0.9350
vn -0.9350 0.3546 -0.0000
vn 0.9350 0.3546 0.0000
vn 0.0000 0.5556 -0.8314
vn 0.0000 0.3632 0.9317
vn -0.9317 0.3632 -0.0000
vn 0.9317 0.3632 0.0000
vn 0.0000 0.5556 0.8314
vn -0.8314 0.5556 -0.0000
vn 0.8314 0.5556 0.0000
vn 0.0000 -1.0000 -0.0000
vn -0.0000 -0.7446 0.6675
vn -0.6675 -0.7446 -0.0000
vn 0.6675 -0.7446 0.0000
vn -0.2244 0.0000 -0.9745
vn 0.0000 1.0000 0.0000
vn -0.8009 0.0000 0.5988
vn 0.2631 0.0000 -0.9648
vn 0.8009 0.0000 0.5988
vn -0.0000 0.9974 0.0726
vn -0.0000 -0.9004 0.4350
vn -0.0000 -0.8402 0.5422
vn -0.0000 -0.9992 0.0401
vn -0.0000 -0.9157 0.4018
vn -0.0000 1.0000 0.0072
vn -0.0000 0.9997 0.0237
vn -0.0000 0.9999 0.0134
vn 0.9815 0.0000 0.1913
vn 0.9988 0.0000 0.0497
vn 0.9431 0.0000 0.3326
vn -0.9815 0.0000 0.1913
vn -0.9988 0.0000 0.0497
vn -0.9431 0.0000 0.3326
usemtl Material
s off
f 45/1/1 1/2/1 9/3/1 49/4/1
f 69/5/2 8/6/2 31/7/2 81/8/2
f 1/2/3 5/9/3 6/10/3 2/11/3
f 68/12/4 70/13/4 7/14/4 3/15/4
f 3/15/5 7/14/5 8/6/5 4/16/5
f 69/5/6 67/17/6 4/16/6 8/6/6
f 49/4/7 9/3/7 13/18/7 51/19/7
f 3/15/8 4/16/8 11/20/8 12/21/8
f 68/12/9 3/15/9 12/21/9 72/22/9
f 1/2/10 2/11/10 10/23/10 9/3/10
f 51/19/11 13/18/11 17/24/11 53/25/11
f 72/22/12 12/21/12 16/26/12 74/27/12
f 12/21/13 11/20/13 15/28/13 16/26/13
f 9/3/14 10/23/14 14/29/14 13/18/14
f 53/25/15 17/24/15 21/30/15 55/31/15
f 74/27/16 16/26/16 20/32/16 76/33/16
f 16/26/17 15/28/17 19/34/17 20/32/17
f 13/18/18 14/29/18 18/35/18 17/24/18
f 55/31/6 21/30/6 25/36/6 57/37/6
f 76/33/19 20/32/19 24/38/19 78/39/19
f 20/32/20 19/34/20 23/40/20 24/38/20
f 17/24/21 18/35/21 22/41/21 21/30/21
f 79/42/22 80/43/22 28/44/22 27/45/22
f 78/39/4 24/38/4 28/46/4 80/47/4
f 24/38/5 23/40/5 27/48/5 28/46/5
f 21/30/3 22/41/3 26/49/3 25/36/3
f 81/8/6 31/7/6 35/50/6 83/51/6
f 48/52/23 6/53/23 30/54/23 60/55/23
f 8/6/24 7/14/24 32/56/24 31/7/24
f 6/10/25 5/9/25 29/57/25 30/58/25
f 83/51/22 35/50/22 39/59/22 85/60/22
f 60/55/4 30/54/4 34/61/4 62/62/4
f 31/7/5 32/56/5 36/63/5 35/50/5
f 30/58/3 29/57/3 33/64/3 34/65/3
f 85/60/26 39/59/26 43/66/26 87/67/26
f 62/62/22 34/61/22 38/68/22 64/69/22
f 35/70/27 36/71/27 40/72/27 39/73/27
f 34/74/4 33/75/4 37/76/4 38/77/4
f 87/78/27 43/79/27 44/80/27 88/81/27
f 64/82/4 38/83/4 42/84/4 66/85/4
f 39/59/5 40/86/5 44/87/5 43/66/5
f 38/83/3 37/88/3 41/89/3 42/84/3
f 108/90/28 99/91/28 94/92/28 93/93/28
f 41/94/27 65/95/27 66/96/27 42/97/27
f 84/98/22 62/62/22 64/69/22 86/99/22
f 37/88/29 63/100/29 65/101/29 41/89/29
f 82/102/4 60/55/4 62/62/4 84/98/4
f 33/64/22 61/103/22 63/100/22 37/88/22
f 70/13/23 48/52/23 60/55/23 82/102/23
f 29/57/6 59/104/6 61/103/6 33/64/6
f 22/105/4 56/106/4 58/107/4 26/108/4
f 25/109/22 26/108/22 58/107/22 57/110/22
f 18/111/19 54/112/19 56/106/19 22/105/19
f 77/113/6 55/31/6 57/37/6 79/114/6
f 14/115/16 52/116/16 54/112/16 18/111/16
f 75/117/15 53/25/15 55/31/15 77/113/15
f 10/118/12 50/119/12 52/116/12 14/115/12
f 73/120/11 51/19/11 53/25/11 75/117/11
f 2/121/9 46/122/9 50/119/9 10/118/9
f 71/123/7 49/4/7 51/19/7 73/120/7
f 5/9/6 1/2/6 45/1/6 47/124/6
f 2/121/4 6/53/4 48/52/4 46/122/4
f 5/9/2 47/124/2 59/104/2 29/57/2
f 67/17/1 45/1/1 49/4/1 71/123/1
f 4/16/1 67/17/1 71/123/1 11/20/1
f 11/20/7 71/123/7 73/120/7 15/28/7
f 15/28/11 73/120/11 75/117/11 19/34/11
f 19/34/15 75/117/15 77/113/15 23/40/15
f 23/40/6 77/113/6 79/114/6 27/48/6
f 7/14/23 70/13/23 82/102/23 32/56/23
f 32/56/4 82/102/4 84/98/4 36/63/4
f 36/63/22 84/98/22 86/99/22 40/86/22
f 40/86/4 86/99/4 88/125/4 44/87/4
f 65/95/27 87/78/27 88/81/27 66/96/27
f 65/101/3 63/100/3 89/126/3 90/127/3
f 61/103/22 83/51/22 85/60/22 63/100/22
f 59/104/6 81/8/6 83/51/6 61/103/6
f 56/106/4 78/39/4 80/47/4 58/107/4
f 57/110/22 58/107/22 80/43/22 79/42/22
f 54/112/19 76/33/19 78/39/19 56/106/19
f 52/116/16 74/27/16 76/33/16 54/112/16
f 50/119/12 72/22/12 74/27/12 52/116/12
f 46/122/9 68/12/9 72/22/9 50/119/9
f 47/124/6 45/1/6 67/17/6 69/5/6
f 46/122/4 48/52/4 70/13/4 68/12/4
f 47/124/2 69/5/2 81/8/2 59/104/2
f 89/126/6 91/128/6 92/129/6 90/127/6
f 63/100/22 85/60/22 91/128/22 89/126/22
f 87/78/27 65/95/27 90/130/27 92/131/27
f 85/60/5 87/67/5 92/129/5 91/128/5
f 100/132/30 103/133/30 95/134/30 96/135/30
f 95/136/4 93/93/4 94/92/4 96/137/4
f 103/138/31 108/139/31 93/140/31 95/141/31
f 99/91/32 100/142/32 96/137/32 94/92/32
f 86/99/33 64/69/33 102/143/33 97/144/33
f 97/144/34 102/143/34 101/145/34 98/146/34
f 98/146/35 101/145/35 100/142/35 99/91/35
f 66/96/36 88/81/36 106/147/36 105/148/36
f 105/148/37 106/147/37 107/149/37 104/150/37
f 104/150/38 107/149/38 108/139/38 103/138/38
f 64/82/39 66/85/39 105/151/39 102/152/39
f 102/152/40 105/151/40 104/153/40 101/154/40
f 101/154/41 104/153/41 103/133/41 100/132/41
f 88/125/42 86/99/42 97/144/42 106/155/42
f 106/155/43 97/144/43 98/146/43 107/156/43
f 107/156/44 98/146/44 99/91/44 108/90/44
