# Blender v2.79 (sub 0) OBJ File: 'Fence.blend'
# www.blender.org
mtllib Fence.mtl
o Cube
v -9.629307 0.020321 -0.161969
v -9.629307 0.020321 0.161969
v -10.027435 0.020321 0.161969
v -10.027435 0.020321 -0.161969
v -9.629306 3.689257 -0.161969
v -9.629307 3.689257 0.161969
v -10.027436 3.689257 0.161969
v -10.027435 3.689257 -0.161969
v -7.638659 0.020321 -0.161969
v -7.638659 0.020321 0.161969
v -8.036788 0.020321 0.161969
v -8.036788 0.020321 -0.161969
v -7.638659 3.689257 -0.161969
v -7.638659 3.689257 0.161969
v -8.036788 3.689257 0.161969
v -8.036788 3.689257 -0.161969
v -5.648011 0.020321 -0.161969
v -5.648011 0.020321 0.161969
v -6.046140 0.020321 0.161969
v -6.046140 0.020321 -0.161969
v -5.648011 3.689257 -0.161969
v -5.648011 3.689257 0.161969
v -6.046140 3.689257 0.161969
v -6.046140 3.689257 -0.161969
v -3.657363 0.020321 -0.161969
v -3.657363 0.020321 0.161969
v -4.055492 0.020321 0.161969
v -4.055492 0.020321 -0.161969
v -3.657363 3.689257 -0.161969
v -3.657363 3.689257 0.161969
v -4.055492 3.689257 0.161969
v -4.055492 3.689257 -0.161969
v -1.666715 0.020321 -0.161969
v -1.666715 0.020321 0.161969
v -2.064845 0.020321 0.161969
v -2.064845 0.020321 -0.161969
v -1.666715 3.689257 -0.161969
v -1.666715 3.689257 0.161969
v -2.064845 3.689257 0.161969
v -2.064845 3.689257 -0.161969
v 0.323933 0.020321 -0.161969
v 0.323933 0.020321 0.161969
v -0.074197 0.020321 0.161969
v -0.074197 0.020321 -0.161969
v 0.323933 3.689257 -0.161969
v 0.323933 3.689257 0.161969
v -0.074197 3.689257 0.161969
v -0.074197 3.689257 -0.161969
v -9.641055 0.459004 -0.120030
v -9.641055 0.459004 0.120030
v -9.641055 0.754045 0.120030
v -9.641055 0.754045 -0.120030
v -8.021224 0.459004 -0.120030
v -8.021224 0.459004 0.120030
v -8.021224 0.754045 0.120030
v -8.021224 0.754045 -0.120030
v -9.641055 1.285810 -0.120030
v -9.641055 1.285810 0.120030
v -9.641055 1.580851 0.120030
v -9.641055 1.580851 -0.120030
v -8.021224 1.285810 -0.120030
v -8.021224 1.285810 0.120030
v -8.021224 1.580851 0.120030
v -8.021224 1.580851 -0.120030
v -9.641055 2.103104 -0.120030
v -9.641055 2.103104 0.120030
v -9.641055 2.398145 0.120030
v -9.641055 2.398145 -0.120030
v -8.021224 2.103104 -0.120030
v -8.021224 2.103104 0.120030
v -8.021224 2.398145 0.120030
v -8.021224 2.398145 -0.120030
v -9.641055 2.862319 -0.120030
v -9.641055 2.862319 0.120030
v -9.641055 3.157360 0.120030
v -9.641055 3.157360 -0.120030
v -8.021224 2.862319 -0.120030
v -8.021224 2.862319 0.120030
v -8.021224 3.157360 0.120030
v -8.021224 3.157360 -0.120030
v -7.676928 0.459004 -0.120030
v -7.676928 0.459004 0.120030
v -7.676928 0.754045 0.120030
v -7.676928 0.754045 -0.120030
v -6.057096 0.459004 -0.120030
v -6.057096 0.459004 0.120030
v -6.057096 0.754045 0.120030
v -6.057096 0.754045 -0.120030
v -7.676928 1.285810 -0.120030
v -7.676928 1.285810 0.120030
v -7.676928 1.580851 0.120030
v -7.676928 1.580851 -0.120030
v -6.057096 1.285810 -0.120030
v -6.057096 1.285810 0.120030
v -6.057096 1.580851 0.120030
v -6.057096 1.580851 -0.120030
v -7.676928 2.103104 -0.120030
v -7.676928 2.103104 0.120030
v -7.676928 2.398145 0.120030
v -7.676928 2.398145 -0.120030
v -6.057096 2.103104 -0.120030
v -6.057096 2.103104 0.120030
v -6.057096 2.398145 0.120030
v -6.057096 2.398145 -0.120030
v -7.676928 2.862319 -0.120030
v -7.676928 2.862319 0.120030
v -7.676928 3.157360 0.120030
v -7.676928 3.157360 -0.120030
v -6.057096 2.862319 -0.120030
v -6.057096 2.862319 0.120030
v -6.057096 3.157360 0.120030
v -6.057096 3.157360 -0.120030
v -5.670852 0.459004 -0.120030
v -5.670852 0.459004 0.120030
v -5.670852 0.754045 0.120030
v -5.670852 0.754045 -0.120030
v -4.051020 0.459004 -0.120030
v -4.051020 0.459004 0.120030
v -4.051020 0.754045 0.120030
v -4.051020 0.754045 -0.120030
v -5.670852 1.285810 -0.120030
v -5.670852 1.285810 0.120030
v -5.670852 1.580851 0.120030
v -5.670852 1.580851 -0.120030
v -4.051020 1.285810 -0.120030
v -4.051020 1.285810 0.120030
v -4.051020 1.580851 0.120030
v -4.051020 1.580851 -0.120030
v -5.670852 2.103104 -0.120030
v -5.670852 2.103104 0.120030
v -5.670852 2.398145 0.120030
v -5.670852 2.398145 -0.120030
v -4.051020 2.103104 -0.120030
v -4.051020 2.103104 0.120030
v -4.051020 2.398145 0.120030
v -4.051020 2.398145 -0.120030
v -5.670852 2.862319 -0.120030
v -5.670852 2.862319 0.120030
v -5.670852 3.157360 0.120030
v -5.670852 3.157360 -0.120030
v -4.051020 2.862319 -0.120030
v -4.051020 2.862319 0.120030
v -4.051020 3.157360 0.120030
v -4.051020 3.157360 -0.120030
v -3.680876 0.459004 -0.120030
v -3.680876 0.459004 0.120030
v -3.680876 0.754045 0.120030
v -3.680876 0.754045 -0.120030
v -2.061045 0.459004 -0.120030
v -2.061045 0.459004 0.120030
v -2.061045 0.754045 0.120030
v -2.061045 0.754045 -0.120030
v -3.680876 1.285810 -0.120030
v -3.680876 1.285810 0.120030
v -3.680876 1.580851 0.120030
v -3.680876 1.580851 -0.120030
v -2.061045 1.285810 -0.120030
v -2.061045 1.285810 0.120030
v -2.061045 1.580851 0.120030
v -2.061045 1.580851 -0.120030
v -3.680876 2.103104 -0.120030
v -3.680876 2.103104 0.120030
v -3.680876 2.398145 0.120030
v -3.680876 2.398145 -0.120030
v -2.061045 2.103104 -0.120030
v -2.061045 2.103104 0.120030
v -2.061045 2.398145 0.120030
v -2.061045 2.398145 -0.120030
v -3.680876 2.862319 -0.120030
v -3.680876 2.862319 0.120030
v -3.680876 3.157360 0.120030
v -3.680876 3.157360 -0.120030
v -2.061045 2.862319 -0.120030
v -2.061045 2.862319 0.120030
v -2.061045 3.157360 0.120030
v -2.061045 3.157360 -0.120030
v -1.658803 0.459004 -0.120030
v -1.658803 0.459004 0.120030
v -1.658803 0.754045 0.120030
v -1.658803 0.754045 -0.120030
v -0.038971 0.459004 -0.120030
v -0.038971 0.459004 0.120030
v -0.038971 0.754045 0.120030
v -0.038971 0.754045 -0.120030
v -1.658803 1.285810 -0.120030
v -1.658803 1.285810 0.120030
v -1.658803 1.580851 0.120030
v -1.658803 1.580851 -0.120030
v -0.038971 1.285810 -0.120030
v -0.038971 1.285810 0.120030
v -0.038971 1.580851 0.120030
v -0.038971 1.580851 -0.120030
v -1.658803 2.103104 -0.120030
v -1.658803 2.103104 0.120030
v -1.658803 2.398145 0.120030
v -1.658803 2.398145 -0.120030
v -0.038971 2.103104 -0.120030
v -0.038971 2.103104 0.120030
v -0.038971 2.398145 0.120030
v -0.038971 2.398145 -0.120030
v -1.658803 2.862319 -0.120030
v -1.658803 2.862319 0.120030
v -1.658803 3.157360 0.120030
v -1.658803 3.157360 -0.120030
v -0.038971 2.862319 -0.120030
v -0.038971 2.862319 0.120030
v -0.038971 3.157360 0.120030
v -0.038971 3.157360 -0.120030
vn 0.0000 -1.0000 0.0000
vn 0.0000 1.0000 0.0000
vn 1.0000 0.0000 0.0000
vn -0.0000 -0.0000 1.0000
vn -1.0000 0.0000 -0.0000
vn 0.0000 0.0000 -1.0000
usemtl Material
s off
f 1//1 2//1 3//1 4//1
f 5//2 8//2 7//2 6//2
f 1//3 5//3 6//3 2//3
f 2//4 6//4 7//4 3//4
f 3//5 7//5 8//5 4//5
f 5//6 1//6 4//6 8//6
f 9//1 10//1 11//1 12//1
f 13//2 16//2 15//2 14//2
f 9//3 13//3 14//3 10//3
f 10//4 14//4 15//4 11//4
f 11//5 15//5 16//5 12//5
f 13//6 9//6 12//6 16//6
f 17//1 18//1 19//1 20//1
f 21//2 24//2 23//2 22//2
f 17//3 21//3 22//3 18//3
f 18//4 22//4 23//4 19//4
f 19//5 23//5 24//5 20//5
f 21//6 17//6 20//6 24//6
f 25//1 26//1 27//1 28//1
f 29//2 32//2 31//2 30//2
f 25//3 29//3 30//3 26//3
f 26//4 30//4 31//4 27//4
f 27//5 31//5 32//5 28//5
f 29//6 25//6 28//6 32//6
f 33//1 34//1 35//1 36//1
f 37//2 40//2 39//2 38//2
f 33//3 37//3 38//3 34//3
f 34//4 38//4 39//4 35//4
f 35//5 39//5 40//5 36//5
f 37//6 33//6 36//6 40//6
f 41//1 42//1 43//1 44//1
f 45//2 48//2 47//2 46//2
f 41//3 45//3 46//3 42//3
f 42//4 46//4 47//4 43//4
f 43//5 47//5 48//5 44//5
f 45//6 41//6 44//6 48//6
f 49//5 50//5 51//5 52//5
f 53//3 56//3 55//3 54//3
f 49//1 53//1 54//1 50//1
f 50//4 54//4 55//4 51//4
f 51//2 55//2 56//2 52//2
f 53//6 49//6 52//6 56//6
f 57//5 58//5 59//5 60//5
f 61//3 64//3 63//3 62//3
f 57//1 61//1 62//1 58//1
f 58//4 62//4 63//4 59//4
f 59//2 63//2 64//2 60//2
f 61//6 57//6 60//6 64//6
f 65//5 66//5 67//5 68//5
f 69//3 72//3 71//3 70//3
f 65//1 69//1 70//1 66//1
f 66//4 70//4 71//4 67//4
f 67//2 71//2 72//2 68//2
f 69//6 65//6 68//6 72//6
f 73//5 74//5 75//5 76//5
f 77//3 80//3 79//3 78//3
f 73//1 77//1 78//1 74//1
f 74//4 78//4 79//4 75//4
f 75//2 79//2 80//2 76//2
f 77//6 73//6 76//6 80//6
f 81//1 85//1 86//1 82//1
f 82//4 86//4 87//4 83//4
f 83//2 87//2 88//2 84//2
f 85//6 81//6 84//6 88//6
f 89//1 93//1 94//1 90//1
f 90//4 94//4 95//4 91//4
f 91//2 95//2 96//2 92//2
f 93//6 89//6 92//6 96//6
f 97//1 101//1 102//1 98//1
f 98//4 102//4 103//4 99//4
f 99//2 103//2 104//2 100//2
f 101//6 97//6 100//6 104//6
f 105//1 109//1 110//1 106//1
f 106//4 110//4 111//4 107//4
f 107//2 111//2 112//2 108//2
f 109//6 105//6 108//6 112//6
f 113//1 117//1 118//1 114//1
f 114//4 118//4 119//4 115//4
f 115//2 119//2 120//2 116//2
f 117//6 113//6 116//6 120//6
f 121//1 125//1 126//1 122//1
f 122//4 126//4 127//4 123//4
f 123//2 127//2 128//2 124//2
f 125//6 121//6 124//6 128//6
f 129//1 133//1 134//1 130//1
f 130//4 134//4 135//4 131//4
f 131//2 135//2 136//2 132//2
f 133//6 129//6 132//6 136//6
f 137//1 141//1 142//1 138//1
f 138//4 142//4 143//4 139//4
f 139//2 143//2 144//2 140//2
f 141//6 137//6 140//6 144//6
f 145//1 149//1 150//1 146//1
f 146//4 150//4 151//4 147//4
f 147//2 151//2 152//2 148//2
f 149//6 145//6 148//6 152//6
f 153//1 157//1 158//1 154//1
f 154//4 158//4 159//4 155//4
f 155//2 159//2 160//2 156//2
f 157//6 153//6 156//6 160//6
f 161//1 165//1 166//1 162//1
f 162//4 166//4 167//4 163//4
f 163//2 167//2 168//2 164//2
f 165//6 161//6 164//6 168//6
f 169//1 173//1 174//1 170//1
f 170//4 174//4 175//4 171//4
f 171//2 175//2 176//2 172//2
f 173//6 169//6 172//6 176//6
f 177//1 181//1 182//1 178//1
f 178//4 182//4 183//4 179//4
f 179//2 183//2 184//2 180//2
f 181//6 177//6 180//6 184//6
f 185//1 189//1 190//1 186//1
f 186//4 190//4 191//4 187//4
f 187//2 191//2 192//2 188//2
f 189//6 185//6 188//6 192//6
f 193//1 197//1 198//1 194//1
f 194//4 198//4 199//4 195//4
f 195//2 199//2 200//2 196//2
f 197//6 193//6 196//6 200//6
f 201//1 205//1 206//1 202//1
f 202//4 206//4 207//4 203//4
f 203//2 207//2 208//2 204//2
f 205//6 201//6 204//6 208//6
