# Blender v2.79 (sub 0) OBJ File: 'LowMagicStaff.blend'
# www.blender.org
mtllib LowMagicStaff.mtl
o Cylinder
v -0.000000 0.187691 -0.054335
v -0.000000 3.109545 -0.037629
v 0.038700 0.187691 -0.038305
v 0.027391 3.109545 -0.019375
v 0.054730 0.187691 0.000395
v 0.038737 3.109545 0.008017
v 0.038700 0.187691 0.039095
v 0.027391 3.109545 0.028499
v -0.000000 0.187691 0.055125
v -0.000000 3.109545 0.039845
v -0.038700 0.187691 0.039095
v -0.027391 3.109545 0.028499
v -0.054730 0.187691 0.000395
v -0.038737 3.109545 0.001108
v -0.038700 0.187691 -0.038305
v -0.027391 3.109545 -0.026283
v -0.000000 0.674667 -0.054335
v -0.000000 1.161642 -0.054335
v -0.000000 1.648618 -0.054335
v -0.050590 2.135593 -0.054335
v 0.036834 2.622569 -0.054335
v 0.075534 2.622569 -0.038305
v -0.011891 2.135593 -0.038305
v 0.038700 1.648618 -0.038305
v 0.038700 1.161642 -0.038305
v 0.038700 0.674667 -0.028350
v 0.091564 2.622569 0.000395
v 0.004139 2.135593 0.000395
v 0.054730 1.648618 0.000395
v 0.054730 1.161642 0.000395
v 0.054730 0.674667 0.010350
v 0.075534 2.622569 0.039095
v -0.011891 2.135593 0.039095
v 0.038700 1.648618 0.039095
v 0.038700 1.161642 0.039095
v 0.038700 0.674667 0.039095
v 0.036834 2.622569 0.055125
v -0.050590 2.135593 0.037270
v -0.000000 1.648618 0.055125
v -0.000000 1.161642 0.055125
v -0.000000 0.674667 0.055125
v -0.001865 2.622569 0.039095
v -0.089290 2.135593 0.021240
v -0.038700 1.648618 0.039095
v -0.038700 1.161642 0.039095
v -0.038700 0.674667 0.039095
v -0.017895 2.622569 0.000395
v -0.105320 2.135593 0.000395
v -0.054730 1.648618 0.000395
v -0.054730 1.161642 0.000395
v -0.054730 0.674667 0.000395
v -0.001865 2.622569 -0.038305
v -0.089290 2.135593 -0.038305
v -0.038700 1.648618 -0.038305
v -0.038700 1.161642 -0.038305
v -0.038700 0.674667 -0.038305
vt 0.000000 0.000000
vt 1.000000 0.000000
vt 1.000000 1.000000
vt 0.000000 1.000000
vt 0.000000 0.000000
vt 1.000000 0.000000
vt 1.000000 1.000000
vt 0.000000 1.000000
vt 0.000000 0.000000
vt 1.000000 0.000000
vt 1.000000 1.000000
vt 0.000000 1.000000
vt 0.000000 0.000000
vt 1.000000 0.000000
vt 1.000000 1.000000
vt 0.000000 1.000000
vt 0.000000 0.000000
vt 1.000000 0.000000
vt 1.000000 1.000000
vt 0.000000 1.000000
vt 0.000000 0.000000
vt 1.000000 0.000000
vt 1.000000 1.000000
vt 0.000000 1.000000
vt 0.500000 1.000000
vt 0.853553 0.853553
vt 1.000000 0.500000
vt 0.853553 0.146447
vt 0.500000 0.000000
vt 0.146447 0.146447
vt 0.000000 0.500000
vt 0.146447 0.853553
vt 0.000000 0.000000
vt 1.000000 0.000000
vt 1.000000 1.000000
vt 0.000000 1.000000
vt 0.000000 0.000000
vt 1.000000 0.000000
vt 1.000000 1.000000
vt 0.000000 1.000000
vt 0.500000 1.000000
vt 0.853553 0.853553
vt 1.000000 0.500000
vt 0.853553 0.146447
vt 0.500000 0.000000
vt 0.146447 0.146447
vt 0.000000 0.500000
vt 0.146447 0.853553
vt 0.000000 0.000000
vt 1.000000 0.000000
vt 1.000000 1.000000
vt 0.000000 1.000000
vt 0.000000 0.000000
vt 1.000000 0.000000
vt 1.000000 1.000000
vt 0.000000 1.000000
vt 0.000000 0.000000
vt 1.000000 0.000000
vt 1.000000 1.000000
vt 0.000000 1.000000
vt 0.000000 0.000000
vt 1.000000 0.000000
vt 1.000000 1.000000
vt 0.000000 1.000000
vt 0.000000 0.000000
vt 1.000000 0.000000
vt 1.000000 1.000000
vt 0.000000 1.000000
vt 0.000000 0.000000
vt 1.000000 0.000000
vt 1.000000 1.000000
vt 0.000000 1.000000
vt 0.000000 0.000000
vt 1.000000 0.000000
vt 1.000000 1.000000
vt 0.000000 1.000000
vt 0.000000 0.000000
vt 1.000000 0.000000
vt 1.000000 1.000000
vt 0.000000 1.000000
vt 0.000000 0.000000
vt 1.000000 0.000000
vt 1.000000 1.000000
vt 0.000000 1.000000
vt 0.000000 0.000000
vt 1.000000 0.000000
vt 1.000000 1.000000
vt 0.000000 1.000000
vt 0.000000 0.000000
vt 1.000000 0.000000
vt 1.000000 1.000000
vt 0.000000 1.000000
vt 0.000000 0.000000
vt 1.000000 0.000000
vt 1.000000 1.000000
vt 0.000000 1.000000
vt 0.000000 0.000000
vt 1.000000 0.000000
vt 1.000000 1.000000
vt 0.000000 1.000000
vt 0.000000 0.000000
vt 1.000000 0.000000
vt 1.000000 1.000000
vt 0.000000 1.000000
vt 0.000000 0.000000
vt 1.000000 0.000000
vt 1.000000 1.000000
vt 0.000000 1.000000
vt 0.000000 0.000000
vt 1.000000 0.000000
vt 1.000000 1.000000
vt 0.000000 1.000000
vt 0.000000 0.000000
vt 1.000000 0.000000
vt 1.000000 1.000000
vt 0.000000 1.000000
vt 0.000000 0.000000
vt 1.000000 0.000000
vt 1.000000 1.000000
vt 0.000000 1.000000
vt 0.000000 0.000000
vt 1.000000 0.000000
vt 1.000000 1.000000
vt 0.000000 1.000000
vt 0.000000 0.000000
vt 1.000000 0.000000
vt 1.000000 1.000000
vt 0.000000 1.000000
vt 0.000000 0.000000
vt 1.000000 0.000000
vt 1.000000 1.000000
vt 0.000000 1.000000
vt 0.000000 0.000000
vt 1.000000 0.000000
vt 1.000000 1.000000
vt 0.000000 1.000000
vt 0.000000 0.000000
vt 1.000000 0.000000
vt 1.000000 1.000000
vt 0.000000 1.000000
vt 0.000000 0.000000
vt 1.000000 0.000000
vt 1.000000 1.000000
vt 0.000000 1.000000
vt 0.000000 0.000000
vt 1.000000 0.000000
vt 1.000000 1.000000
vt 0.000000 1.000000
vt 0.000000 0.000000
vt 1.000000 0.000000
vt 1.000000 1.000000
vt 0.000000 1.000000
vt 0.000000 0.000000
vt 1.000000 0.000000
vt 1.000000 1.000000
vt 0.000000 1.000000
vt 0.000000 0.000000
vt 1.000000 0.000000
vt 1.000000 1.000000
vt 0.000000 1.000000
vt 0.000000 0.000000
vt 1.000000 0.000000
vt 1.000000 1.000000
vt 0.000000 1.000000
vt 0.000000 0.000000
vt 1.000000 0.000000
vt 1.000000 1.000000
vt 0.000000 1.000000
vt 0.000000 0.000000
vt 1.000000 0.000000
vt 1.000000 1.000000
vt 0.000000 1.000000
vt 0.000000 0.000000
vt 1.000000 0.000000
vt 1.000000 1.000000
vt 0.000000 1.000000
vt 0.000000 0.000000
vt 1.000000 0.000000
vt 1.000000 1.000000
vt 0.000000 1.000000
vt 0.000000 0.000000
vt 1.000000 0.000000
vt 1.000000 1.000000
vt 0.000000 1.000000
vt 0.000000 0.000000
vt 1.000000 0.000000
vt 1.000000 1.000000
vt 0.000000 1.000000
vt 0.000000 0.000000
vt 1.000000 0.000000
vt 1.000000 1.000000
vt 0.000000 1.000000
vt 0.000000 0.000000
vt 1.000000 0.000000
vt 1.000000 1.000000
vt 0.000000 1.000000
vt 0.000000 0.000000
vt 1.000000 0.000000
vt 1.000000 1.000000
vt 0.000000 1.000000
vt 0.000000 0.000000
vt 1.000000 0.000000
vt 1.000000 1.000000
vt 0.000000 1.000000
vt 0.000000 0.000000
vt 1.000000 0.000000
vt 1.000000 1.000000
vt 0.000000 1.000000
vn 0.4593 0.0725 -0.8853
vn 0.9187 0.1056 -0.3805
vn 0.9035 0.0949 0.4179
vn 0.3820 0.0578 0.9223
vn -0.3827 0.0000 0.9239
vn -0.9231 -0.0401 0.3824
vn 0.0000 1.0000 0.0000
vn -0.9232 -0.0390 -0.3824
vn -0.3827 0.0027 -0.9239
vn 0.0000 -1.0000 -0.0000
vn -0.3827 0.0000 -0.9239
vn -0.3824 -0.0397 -0.9232
vn -0.3818 0.0685 -0.9217
vn -0.9239 0.0000 -0.3827
vn -0.9197 -0.0955 -0.3809
vn -0.9114 0.1636 -0.3775
vn -0.9239 0.0000 0.3827
vn -0.8775 -0.0825 0.4725
vn -0.8708 0.1477 0.4689
vn -0.3827 -0.0059 0.9239
vn -0.3825 0.0348 0.9233
vn 0.3827 0.0000 0.9239
vn 0.1804 0.0368 0.9829
vn 0.1803 -0.0504 0.9823
vn 0.9031 -0.0044 0.4293
vn 0.9031 0.0044 0.4293
vn 0.9239 0.0000 0.3827
vn 0.9197 0.0955 0.3809
vn 0.9114 -0.1636 0.3775
vn 0.9239 0.0078 -0.3827
vn 0.9239 -0.0078 -0.3827
vn 0.9239 0.0000 -0.3827
vn 0.9197 0.0955 -0.3809
vn 0.9114 -0.1636 -0.3775
vn 0.4771 0.0090 -0.8788
vn 0.4771 -0.0090 -0.8788
vn 0.3827 0.0000 -0.9239
vn 0.3824 0.0397 -0.9232
vn 0.3818 -0.0685 -0.9217
usemtl None
s off
f 21/1/1 2/2/1 4/3/1 22/4/1
f 22/5/2 4/6/2 6/7/2 27/8/2
f 27/9/3 6/10/3 8/11/3 32/12/3
f 32/13/4 8/14/4 10/15/4 37/16/4
f 37/17/5 10/18/5 12/19/5 42/20/5
f 42/21/6 12/22/6 14/23/6 47/24/6
f 4/25/7 2/26/7 16/27/7 14/28/7 12/29/7 10/30/7 8/31/7 6/32/7
f 47/33/8 14/34/8 16/35/8 52/36/8
f 52/37/9 16/38/9 2/39/9 21/40/9
f 1/41/10 3/42/10 5/43/10 7/44/10 9/45/10 11/46/10 13/47/10 15/48/10
f 15/49/11 56/50/11 17/51/11 1/52/11
f 56/53/11 55/54/11 18/55/11 17/56/11
f 55/57/11 54/58/11 19/59/11 18/60/11
f 54/61/12 53/62/12 20/63/12 19/64/12
f 53/65/13 52/66/13 21/67/13 20/68/13
f 13/69/14 51/70/14 56/71/14 15/72/14
f 51/73/14 50/74/14 55/75/14 56/76/14
f 50/77/14 49/78/14 54/79/14 55/80/14
f 49/81/15 48/82/15 53/83/15 54/84/15
f 48/85/16 47/86/16 52/87/16 53/88/16
f 11/89/17 46/90/17 51/91/17 13/92/17
f 46/93/17 45/94/17 50/95/17 51/96/17
f 45/97/17 44/98/17 49/99/17 50/100/17
f 44/101/18 43/102/18 48/103/18 49/104/18
f 43/105/19 42/106/19 47/107/19 48/108/19
f 9/109/5 41/110/5 46/111/5 11/112/5
f 41/113/5 40/114/5 45/115/5 46/116/5
f 40/117/5 39/118/5 44/119/5 45/120/5
f 39/121/20 38/122/20 43/123/20 44/124/20
f 38/125/21 37/126/21 42/127/21 43/128/21
f 7/129/22 36/130/22 41/131/22 9/132/22
f 36/133/22 35/134/22 40/135/22 41/136/22
f 35/137/22 34/138/22 39/139/22 40/140/22
f 34/141/23 33/142/23 38/143/23 39/144/23
f 33/145/24 32/146/24 37/147/24 38/148/24
f 5/149/25 31/150/25 36/151/25 7/152/25
f 31/153/26 30/154/26 35/155/26 36/156/26
f 30/157/27 29/158/27 34/159/27 35/160/27
f 29/161/28 28/162/28 33/163/28 34/164/28
f 28/165/29 27/166/29 32/167/29 33/168/29
f 3/169/30 26/170/30 31/171/30 5/172/30
f 26/173/31 25/174/31 30/175/31 31/176/31
f 25/177/32 24/178/32 29/179/32 30/180/32
f 24/181/33 23/182/33 28/183/33 29/184/33
f 23/185/34 22/186/34 27/187/34 28/188/34
f 1/189/35 17/190/35 26/191/35 3/192/35
f 17/193/36 18/194/36 25/195/36 26/196/36
f 18/197/37 19/198/37 24/199/37 25/200/37
f 19/201/38 20/202/38 23/203/38 24/204/38
f 20/205/39 21/206/39 22/207/39 23/208/39
